<?xml version="1.0" encoding="utf-8"?>
<!-- Generator: Adobe Illustrator 27.7.0, SVG Export Plug-In . SVG Version: 6.00 Build 0)  -->
<svg version="1.1" id="Layer_1" xmlns="http://www.w3.org/2000/svg" xmlns:xlink="http://www.w3.org/1999/xlink" x="0px" y="0px"
	 viewBox="0 0 1200 630" style="enable-background:new 0 0 1200 630;" xml:space="preserve">
<style type="text/css">
	.st0{fill:url(#SVGID_1_);}
	.st1{enable-background:new    ;}
	.st2{fill:#FFCE00;}
	.st3{fill:#FFFFFF;}
	.st4{fill:#0E3B2E;}
	.st5{fill:#09231B;}
	.st6{fill:#E8C274;}
	.st7{fill:none;stroke:#FFCE00;stroke-width:4;stroke-linecap:round;stroke-miterlimit:10;}
	.st8{opacity:0.3;}
</style>
<linearGradient id="SVGID_1_" gradientUnits="userSpaceOnUse" x1="301.7483" y1="735.7217" x2="302.7483" y2="734.7217" gradientTransform="matrix(1200 0 0 -630 -362098 463504.6875)">
	<stop  offset="0" style="stop-color:#0E3B2E"/>
	<stop  offset="0.6" style="stop-color:#1A5D47"/>
	<stop  offset="1" style="stop-color:#C9A14A"/>
</linearGradient>
<rect y="0" class="st0" width="1200" height="630"/>
<g class="st1">
	<path class="st2" d="M106,589.2v2.8H93.1v-2.2l3.4-4.1h-2.3v-2.6h4.5l2.7-3.3h-8V577h12.5v2.2l-3.2,3.9h2.4v2.6h-4.5l-2.9,3.4H106z
		"/>
	<path class="st2" d="M124,577v15h-3.3v-1.9c-1.2,1.4-2.9,2.1-5,2.1c-4.4,0-7.6-3-7.6-7.7c0-4.6,3.2-7.6,7.6-7.6
		c1.9,0,3.6,0.6,4.8,2V577H124z M120.6,584.5c0-2.9-1.9-4.7-4.5-4.7c-2.5,0-4.4,1.8-4.4,4.7c0,2.9,1.9,4.7,4.4,4.7
		C118.7,589.2,120.6,587.4,120.6,584.5z"/>
	<path class="st2" d="M143.3,571.2V592h-3.4v-1.9c-1.2,1.4-2.9,2.1-5,2.1c-4.3,0-7.6-3-7.6-7.7c0-4.6,3.2-7.6,7.6-7.6
		c1.9,0,3.6,0.6,4.8,2v-7.7H143.3z M139.8,584.5c0-2.9-1.9-4.7-4.5-4.7s-4.5,1.8-4.5,4.7c0,2.9,1.9,4.7,4.5,4.7
		S139.8,587.4,139.8,584.5z"/>
	<path class="st2" d="M162.3,577v15H159v-1.9c-1.1,1.4-2.9,2.1-4.8,2.1c-3.8,0-6.4-2.1-6.4-6.6V577h3.5v8.1c0,2.7,1.3,4,3.5,4
		c2.4,0,4.1-1.5,4.1-4.5V577H162.3z"/>
	<path class="st2" d="M166.9,587.3v-16.1h3.5v15.8c0,1.5,0.7,2.2,2.1,2.2c0.5,0,1-0.1,1.3-0.3l0.2,2.8c-0.7,0.3-1.4,0.4-2.1,0.4
		C168.7,592.2,166.9,590.4,166.9,587.3z"/>
	<path class="st2" d="M176.3,587.3v-16.1h3.5v15.8c0,1.5,0.7,2.2,2.1,2.2c0.5,0,1-0.1,1.3-0.3l0.2,2.8c-0.7,0.3-1.4,0.4-2.1,0.4
		C178.1,592.2,176.3,590.4,176.3,587.3z"/>
	<path class="st2" d="M200.3,577v15H197v-1.9c-1.2,1.4-2.9,2.1-5,2.1c-4.4,0-7.6-3-7.6-7.7c0-4.6,3.2-7.6,7.6-7.6
		c1.9,0,3.6,0.6,4.8,2V577H200.3z M196.9,584.5c0-2.9-1.9-4.7-4.5-4.7c-2.5,0-4.4,1.8-4.4,4.7c0,2.9,1.9,4.7,4.4,4.7
		C195,589.2,196.9,587.4,196.9,584.5z"/>
	<path class="st2" d="M203.2,590.5l1.3-2.7c1.3,0.9,3.3,1.5,5.2,1.5c2.2,0,3.1-0.6,3.1-1.7c0-2.9-9.2-0.2-9.2-6.1
		c0-2.8,2.5-4.7,6.6-4.7c2,0,4.3,0.5,5.6,1.3l-1.3,2.7c-1.4-0.8-2.9-1.1-4.3-1.1c-2.1,0-3.1,0.7-3.1,1.7c0,3,9.2,0.3,9.2,6.2
		c0,2.8-2.6,4.6-6.8,4.6C207.1,592.2,204.6,591.5,203.2,590.5z"/>
	<path class="st2" d="M234.1,583.4v8.6h-3.5v-8.1c0-2.7-1.3-3.9-3.6-3.9c-2.5,0-4.2,1.5-4.2,4.5v7.6h-3.5v-20.8h3.5v7.6
		c1.1-1.2,2.9-1.9,5-1.9C231.4,576.9,234.1,578.9,234.1,583.4z"/>
	<path class="st2" d="M247.2,576.9v3.3c-0.3-0.1-0.6-0.1-0.8-0.1c-2.7,0-4.3,1.6-4.3,4.6v7.3h-3.5v-15h3.3v2.2
		C242.9,577.7,244.7,576.9,247.2,576.9z"/>
	<path class="st2" d="M249.1,589.9c0-1.4,1-2.3,2.3-2.3c1.3,0,2.3,0.9,2.3,2.3c0,1.3-1,2.3-2.3,2.3
		C250.2,592.2,249.1,591.2,249.1,589.9z"/>
	<path class="st3" d="M271.1,577l-6.4,15h-3.6l-6.4-15h3.6l4.6,11.1l4.8-11.1H271.1z"/>
	<path class="st3" d="M284.5,587.6l1.8,2.2c-1.3,1.6-3.4,2.4-6,2.4c-5,0-8.3-3.2-8.3-7.7c0-4.5,3.2-7.6,7.7-7.6
		c4.2,0,7.5,2.8,7.6,7.5l-11.5,2.2c0.7,1.7,2.4,2.6,4.5,2.6C282.1,589.2,283.4,588.7,284.5,587.6z M275.5,584.3L275.5,584.3l8.5-1.6
		c-0.5-1.8-2-3.1-4.1-3.1C277.2,579.7,275.5,581.5,275.5,584.3z"/>
	<path class="st3" d="M299.4,576.9v3.3c-0.3-0.1-0.6-0.1-0.8-0.1c-2.7,0-4.3,1.6-4.3,4.6v7.3h-3.5v-15h3.3v2.2
		C295,577.7,296.9,576.9,299.4,576.9z"/>
	<path class="st3" d="M301.2,584.5c0-4.5,3.4-7.6,8.1-7.6c2.9,0,5.2,1.2,6.4,3.5l-2.7,1.6c-0.9-1.4-2.2-2.1-3.7-2.1
		c-2.6,0-4.5,1.8-4.5,4.7c0,2.9,2,4.7,4.5,4.7c1.5,0,2.8-0.6,3.7-2.1l2.7,1.6c-1.1,2.2-3.5,3.5-6.4,3.5
		C304.6,592.2,301.2,589,301.2,584.5z"/>
	<path class="st3" d="M329.9,587.6l1.8,2.2c-1.3,1.6-3.4,2.4-6,2.4c-5,0-8.3-3.2-8.3-7.7c0-4.5,3.2-7.6,7.7-7.6
		c4.2,0,7.5,2.8,7.6,7.5l-11.5,2.2c0.7,1.7,2.4,2.6,4.5,2.6C327.5,589.2,328.8,588.7,329.9,587.6z M320.9,584.3L320.9,584.3l8.5-1.6
		c-0.5-1.8-2-3.1-4.1-3.1C322.6,579.7,320.9,581.5,320.9,584.3z"/>
	<path class="st3" d="M336.1,587.3v-16.1h3.5v15.8c0,1.5,0.7,2.2,2.1,2.2c0.5,0,1-0.1,1.3-0.3l0.2,2.8c-0.7,0.3-1.4,0.4-2.1,0.4
		C337.9,592.2,336.1,590.4,336.1,587.3z"/>
	<path class="st3" d="M344.3,589.9c0-1.4,1-2.3,2.3-2.3c1.3,0,2.3,0.9,2.3,2.3c0,1.3-1,2.3-2.3,2.3
		C345.4,592.2,344.3,591.2,344.3,589.9z"/>
	<path class="st3" d="M367,577v15h-3.3v-1.9c-1.2,1.4-2.9,2.1-5,2.1c-4.4,0-7.6-3-7.6-7.7c0-4.6,3.2-7.6,7.6-7.6
		c1.9,0,3.6,0.6,4.8,2V577H367z M363.5,584.5c0-2.9-1.9-4.7-4.5-4.7c-2.5,0-4.4,1.8-4.4,4.7c0,2.9,1.9,4.7,4.4,4.7
		C361.6,589.2,363.5,587.4,363.5,584.5z"/>
	<path class="st3" d="M387.4,584.5c0,4.6-3.2,7.7-7.6,7.7c-1.9,0-3.6-0.6-4.8-2v7.3h-3.5V577h3.3v2c1.2-1.4,2.9-2.1,5-2.1
		C384.2,576.9,387.4,579.9,387.4,584.5z M383.9,584.5c0-2.9-1.9-4.7-4.4-4.7s-4.5,1.8-4.5,4.7c0,2.9,1.9,4.7,4.5,4.7
		S383.9,587.4,383.9,584.5z"/>
	<path class="st3" d="M406.6,584.5c0,4.6-3.2,7.7-7.6,7.7c-1.9,0-3.6-0.6-4.8-2v7.3h-3.5V577h3.3v2c1.2-1.4,2.9-2.1,5-2.1
		C403.4,576.9,406.6,579.9,406.6,584.5z M403.1,584.5c0-2.9-1.9-4.7-4.4-4.7c-2.5,0-4.5,1.8-4.5,4.7c0,2.9,1.9,4.7,4.5,4.7
		C401.2,589.2,403.1,587.4,403.1,584.5z"/>
</g>
<g class="st1">
	<path class="st4" d="M694.3,577v15H691v-1.9c-1.2,1.4-2.9,2.1-5,2.1c-4.4,0-7.6-3-7.6-7.7c0-4.6,3.2-7.6,7.6-7.6
		c1.9,0,3.6,0.6,4.8,2V577H694.3z M690.9,584.5c0-2.9-1.9-4.7-4.5-4.7c-2.5,0-4.4,1.8-4.4,4.7c0,2.9,1.9,4.7,4.4,4.7
		C689,589.2,690.9,587.4,690.9,584.5z"/>
	<path class="st4" d="M714.8,584.5c0,4.6-3.2,7.7-7.6,7.7c-2,0-3.8-0.7-5-2.1v1.9h-3.3v-20.8h3.5v7.6c1.2-1.3,2.9-2,4.8-2
		C711.6,576.9,714.8,579.9,714.8,584.5z M711.3,584.5c0-2.9-1.9-4.7-4.4-4.7c-2.5,0-4.5,1.8-4.5,4.7c0,2.9,1.9,4.7,4.5,4.7
		C709.4,589.2,711.3,587.4,711.3,584.5z"/>
	<path class="st4" d="M716.9,584.5c0-4.5,3.4-7.6,8-7.6c4.6,0,8,3.2,8,7.6c0,4.5-3.3,7.7-8,7.7C720.3,592.2,716.9,589,716.9,584.5z
		 M729.3,584.5c0-2.9-1.9-4.7-4.5-4.7c-2.5,0-4.4,1.8-4.4,4.7c0,2.9,1.9,4.7,4.4,4.7C727.4,589.2,729.3,587.4,729.3,584.5z"/>
	<path class="st4" d="M750.8,577v15h-3.3v-1.9c-1.2,1.4-2.9,2.1-5,2.1c-4.4,0-7.6-3-7.6-7.7c0-4.6,3.2-7.6,7.6-7.6
		c1.9,0,3.6,0.6,4.8,2V577H750.8z M747.4,584.5c0-2.9-1.9-4.7-4.5-4.7c-2.5,0-4.4,1.8-4.4,4.7c0,2.9,1.9,4.7,4.4,4.7
		C745.5,589.2,747.4,587.4,747.4,584.5z"/>
	<path class="st4" d="M755.4,587.3v-16.1h3.5v15.8c0,1.5,0.7,2.2,2.1,2.2c0.5,0,1-0.1,1.3-0.3l0.2,2.8c-0.7,0.3-1.4,0.4-2.1,0.4
		C757.2,592.2,755.4,590.4,755.4,587.3z"/>
	<path class="st4" d="M779.4,577v15h-3.3v-1.9c-1.2,1.4-2.9,2.1-5,2.1c-4.4,0-7.6-3-7.6-7.7c0-4.6,3.2-7.6,7.6-7.6
		c1.9,0,3.6,0.6,4.8,2V577H779.4z M776,584.5c0-2.9-1.9-4.7-4.5-4.7c-2.5,0-4.4,1.8-4.4,4.7c0,2.9,1.9,4.7,4.4,4.7
		C774.1,589.2,776,587.4,776,584.5z"/>
	<path class="st4" d="M795.8,589.2v2.8h-12.9v-2.2l3.4-4.1H784v-2.6h4.5l2.7-3.3h-8V577h12.5v2.2l-3.2,3.9h2.4v2.6h-4.5l-2.9,3.4
		H795.8z"/>
	<path class="st4" d="M824.2,583.4v8.6h-3.5v-8.1c0-2.7-1.2-3.9-3.4-3.9c-2.3,0-3.9,1.5-3.9,4.5v7.6H810v-8.1c0-2.7-1.2-3.9-3.4-3.9
		c-2.3,0-3.9,1.5-3.9,4.5v7.6h-3.5v-15h3.3v1.9c1.1-1.3,2.9-2.1,4.9-2.1c2.2,0,4,0.8,5,2.5c1.2-1.5,3.2-2.5,5.6-2.5
		C821.7,576.9,824.2,578.9,824.2,583.4z"/>
	<path class="st4" d="M827.9,582.8h7.7v2.9h-7.7V582.8z"/>
	<path class="st4" d="M853.5,577l-6.4,15h-3.6l-6.4-15h3.6l4.6,11.1l4.8-11.1H853.5z"/>
	<path class="st4" d="M855.2,572.5c0-1.2,1-2.1,2.2-2.1s2.2,0.9,2.2,2c0,1.2-0.9,2.2-2.2,2.2C856.1,574.6,855.2,573.7,855.2,572.5z
		 M855.7,577h3.5v15h-3.5V577z"/>
	<path class="st4" d="M862,590.5l1.3-2.7c1.3,0.9,3.3,1.5,5.2,1.5c2.2,0,3.1-0.6,3.1-1.7c0-2.9-9.2-0.2-9.2-6.1
		c0-2.8,2.5-4.7,6.6-4.7c2,0,4.3,0.5,5.6,1.3l-1.3,2.7c-1.4-0.8-2.9-1.1-4.3-1.1c-2.1,0-3.1,0.7-3.1,1.7c0,3,9.2,0.3,9.2,6.2
		c0,2.8-2.6,4.6-6.8,4.6C865.9,592.2,863.4,591.5,862,590.5z"/>
	<path class="st4" d="M892.6,577v15h-3.3v-1.9c-1.1,1.4-2.9,2.1-4.8,2.1c-3.8,0-6.4-2.1-6.4-6.6V577h3.5v8.1c0,2.7,1.3,4,3.5,4
		c2.4,0,4.1-1.5,4.1-4.5V577H892.6z"/>
	<path class="st4" d="M911.9,577v15h-3.3v-1.9c-1.2,1.4-2.9,2.1-5,2.1c-4.4,0-7.6-3-7.6-7.7c0-4.6,3.2-7.6,7.6-7.6
		c1.9,0,3.6,0.6,4.8,2V577H911.9z M908.4,584.5c0-2.9-1.9-4.7-4.5-4.7c-2.5,0-4.4,1.8-4.4,4.7c0,2.9,1.9,4.7,4.4,4.7
		C906.5,589.2,908.4,587.4,908.4,584.5z"/>
	<path class="st4" d="M916.4,587.3v-16.1h3.5v15.8c0,1.5,0.7,2.2,2.1,2.2c0.5,0,1-0.1,1.3-0.3l0.2,2.8c-0.7,0.3-1.4,0.4-2.1,0.4
		C918.3,592.2,916.4,590.4,916.4,587.3z"/>
	<path class="st4" d="M925.1,582.8h7.7v2.9h-7.7V582.8z"/>
	<path class="st4" d="M951.2,577v15h-3.3v-1.9c-1.2,1.4-2.9,2.1-5,2.1c-4.4,0-7.6-3-7.6-7.7c0-4.6,3.2-7.6,7.6-7.6
		c1.9,0,3.6,0.6,4.8,2V577H951.2z M947.8,584.5c0-2.9-1.9-4.7-4.5-4.7c-2.5,0-4.4,1.8-4.4,4.7c0,2.9,1.9,4.7,4.4,4.7
		C945.9,589.2,947.8,587.4,947.8,584.5z"/>
	<path class="st4" d="M964.5,576.9v3.3c-0.3-0.1-0.6-0.1-0.8-0.1c-2.7,0-4.3,1.6-4.3,4.6v7.3h-3.5v-15h3.3v2.2
		C960.2,577.7,962,576.9,964.5,576.9z"/>
	<path class="st4" d="M976,591.2c-0.8,0.7-2.1,1-3.4,1c-3.3,0-5.2-1.7-5.2-5v-13.4h3.5v3.4h4v2.8h-4v7.1c0,1.5,0.8,2.2,2.1,2.2
		c0.7,0,1.4-0.2,2-0.6L976,591.2z"/>
	<path class="st4" d="M977.7,589.9c0-1.4,1-2.3,2.3-2.3s2.3,0.9,2.3,2.3c0,1.3-1,2.3-2.3,2.3S977.7,591.2,977.7,589.9z"/>
	<path class="st3" d="M999.7,577l-6.4,15h-3.6l-6.4-15h3.6l4.6,11.1l4.8-11.1H999.7z"/>
	<path class="st3" d="M1013.1,587.6l1.8,2.2c-1.3,1.6-3.4,2.4-6,2.4c-5,0-8.3-3.2-8.3-7.7c0-4.5,3.2-7.6,7.7-7.6
		c4.2,0,7.5,2.8,7.6,7.5l-11.5,2.2c0.7,1.7,2.4,2.6,4.5,2.6C1010.7,589.2,1012,588.7,1013.1,587.6z M1004.1,584.3L1004.1,584.3
		l8.5-1.6c-0.5-1.8-2-3.1-4.1-3.1C1005.8,579.7,1004.1,581.5,1004.1,584.3z"/>
	<path class="st3" d="M1027.9,576.9v3.3c-0.3-0.1-0.6-0.1-0.8-0.1c-2.7,0-4.3,1.6-4.3,4.6v7.3h-3.5v-15h3.3v2.2
		C1023.6,577.7,1025.4,576.9,1027.9,576.9z"/>
	<path class="st3" d="M1029.8,584.5c0-4.5,3.4-7.6,8.1-7.6c2.9,0,5.2,1.2,6.4,3.5l-2.7,1.6c-0.9-1.4-2.2-2.1-3.7-2.1
		c-2.6,0-4.5,1.8-4.5,4.7c0,2.9,2,4.7,4.5,4.7c1.5,0,2.8-0.6,3.7-2.1l2.7,1.6c-1.1,2.2-3.5,3.5-6.4,3.5
		C1033.2,592.2,1029.8,589,1029.8,584.5z"/>
	<path class="st3" d="M1058.5,587.6l1.8,2.2c-1.3,1.6-3.4,2.4-6,2.4c-5,0-8.3-3.2-8.3-7.7c0-4.5,3.2-7.6,7.7-7.6
		c4.2,0,7.5,2.8,7.6,7.5l-11.5,2.2c0.7,1.7,2.4,2.6,4.5,2.6C1056.1,589.2,1057.4,588.7,1058.5,587.6z M1049.5,584.3L1049.5,584.3
		l8.5-1.6c-0.5-1.8-2-3.1-4.1-3.1C1051.2,579.7,1049.5,581.5,1049.5,584.3z"/>
	<path class="st3" d="M1064.7,587.3v-16.1h3.5v15.8c0,1.5,0.7,2.2,2.1,2.2c0.5,0,1-0.1,1.3-0.3l0.2,2.8c-0.7,0.3-1.4,0.4-2.1,0.4
		C1066.5,592.2,1064.7,590.4,1064.7,587.3z"/>
	<path class="st3" d="M1072.9,589.9c0-1.4,1-2.3,2.3-2.3c1.3,0,2.3,0.9,2.3,2.3c0,1.3-1,2.3-2.3,2.3
		C1074,592.2,1072.9,591.2,1072.9,589.9z"/>
	<path class="st3" d="M1095.6,577v15h-3.3v-1.9c-1.2,1.4-2.9,2.1-5,2.1c-4.4,0-7.6-3-7.6-7.7c0-4.6,3.2-7.6,7.6-7.6
		c1.9,0,3.6,0.6,4.8,2V577H1095.6z M1092.1,584.5c0-2.9-1.9-4.7-4.5-4.7c-2.5,0-4.4,1.8-4.4,4.7c0,2.9,1.9,4.7,4.4,4.7
		C1090.2,589.2,1092.1,587.4,1092.1,584.5z"/>
	<path class="st3" d="M1116,584.5c0,4.6-3.2,7.7-7.6,7.7c-1.9,0-3.6-0.6-4.8-2v7.3h-3.5V577h3.3v2c1.2-1.4,2.9-2.1,5-2.1
		C1112.8,576.9,1116,579.9,1116,584.5z M1112.5,584.5c0-2.9-1.9-4.7-4.4-4.7c-2.5,0-4.5,1.8-4.5,4.7c0,2.9,1.9,4.7,4.5,4.7
		C1110.6,589.2,1112.5,587.4,1112.5,584.5z"/>
	<path class="st3" d="M1135.2,584.5c0,4.6-3.2,7.7-7.6,7.7c-1.9,0-3.6-0.6-4.8-2v7.3h-3.5V577h3.3v2c1.2-1.4,2.9-2.1,5-2.1
		C1132,576.9,1135.2,579.9,1135.2,584.5z M1131.7,584.5c0-2.9-1.9-4.7-4.4-4.7c-2.5,0-4.5,1.8-4.5,4.7c0,2.9,1.9,4.7,4.5,4.7
		C1129.8,589.2,1131.7,587.4,1131.7,584.5z"/>
</g>
<g>
	<path class="st5" d="M1067.2,250.8h-67.7c-38.2,0-69.1-30.9-69.1-69.1V114c0-38.2,30.9-69.1,69.1-69.1h67.7
		c38.2,0,69.1,30.9,69.1,69.1v67.7C1136.3,219.9,1105.3,250.8,1067.2,250.8"/>
	<path class="st3" d="M1022.7,138.9c2.8,0,7.8-0.9,11.2-2.6l2.2-4.8c3.1-6.9,1.9-11.2-1.1-15.2l1.1-2.1l-7.9-5.2h-1.1l-2.8,9.8
		c6,3,10.5,6,12.1,9.4c-3.1,0.2-9.3,0.5-12,0.5c-6.6,0-6.2-1.6-7-4.5h-1.1c-0.2,2.9-0.4,6.5-0.4,7.9
		C1015.9,136.8,1018.3,138.9,1022.7,138.9"/>
	<path class="st3" d="M1046.5,139.8l2.9-9c0.7-2.1,1-4.2,1-6.4v-13.9l1.9-2.2l-2.9-10.9h-1.1l-4.7,5.8l1.9,36.6H1046.5z"/>
	<path class="st3" d="M1066.7,104.4c0.1-0.1,0.1-0.9,0-0.9l-5.3-5.3l-5.4,5.4v0.8l5.4,5.4L1066.7,104.4z"/>
	<path class="st3" d="M1062,114h-1.1l-3.7,8.8c2.8,2.8,6.4,6.1,8.7,9.8c-1.7,6-9.8,9.9-19.9,11.7v1.1l11.7,6
		c5.4-6.3,9.3-14.5,9.3-22.6c0-0.9-0.1-1.8-0.2-2.7l1.7-4L1062,114z"/>
	<path class="st3" d="M1022.4,149.7c0.1-0.1,0.1-0.8,0-0.8l-4.5-4.5l-4.6,4.5v0.7l4.6,4.6L1022.4,149.7z"/>
	<path class="st3" d="M1018.1,159.2l4.1,4.1l4.6-4.6c0.1-0.1,0.1-0.8,0-0.8l-4.6-4.6l-4.1,4.1l-4.1-4.1l-4.6,4.6v0.7l4.6,4.6
		L1018.1,159.2z"/>
	<path class="st3" d="M1071.7,144.4l-4.6,5.8l1.6,25.1c-0.8,0.1-2.4,0.3-3.5,0.3h-6.8h-3.1c3.8-2.5,5.5-5.5,5.5-8.7
		c0-6.2-5.2-8.1-10.7-8.1c-3.2,0-6.5,0.7-9,1.6l-3.3,7.3v0.8c1.5,2.6,3.1,4.9,4.7,7c-1.4,0.1-3.1,0.1-5.5,0.1
		c-3.8,0-7.4-0.3-7.6-4.4l-0.2-4.6h-1.4l-2.1,8.6l-7.2-1.5l1-4.7l-1.6-0.3l-1.9,6.8c-1.6,0.2-3.4,0.2-4.9,0.2c0,0,0,0-0.1,0v0
		c-4.7,0-5.9-0.9-5.1-3.5l1.3-4.2l-1.1-1.7l-18.6,3.2l-2.1,6.8c3.5,1.5,6.8,3.1,9.8,5.2c-2.6,4.6-9.3,8.2-18.6,9.9v1.1l11.7,6
		c4.8-5.8,7.8-11,7.8-15.8c0-1.9-0.4-3.7-1.4-5.5l9.2-2.3c-0.2,1.2-0.4,2.5-0.4,3.8c0,4.5,1.7,7.3,4.9,7.3c0,0,0,0,0.1,0v0
		c2.3,0,3.5-0.3,5.1-1.4l0.8-1.9l9.8,2.2l1.6-6.5c0.3,6,4.4,7.5,8.6,7.5l0,0h0h0c2.6,0,4.9-0.6,7.4-1.5l5.1-4.1
		c4.1,3.6,9.1,5.7,15.6,5.7h0h0c0.1,0,0.2,0,0.2,0c0,0,0,0,0,0c0.1,0,0.2,0,0.2,0c0,0,0,0,0,0c0,0,0.1,0,0.1,0
		c2.4-0.2,4.7-1.7,5.6-2.4c1.6-4.5,5.1-15.7,5.1-21.5v-4.4l1.9-2.2l-2.9-10.9H1071.7z M1043.6,170.4l-1.5-2.2
		c2.6-0.2,5.7-0.4,8.6-0.4c4.3,0,8.5,0.5,8.5,2.3c0,1.6-7.8,4.1-11,4.8C1046.5,174.1,1045.2,172.8,1043.6,170.4"/>
	<path class="st3" d="M1087,144.4h-1.1l-4.7,5.8l1.9,36.6h1.1l2.9-9c0.7-2.1,1-4.2,1-6.4v-13.9l1.9-2.2L1087,144.4z"/>
	<path class="st6" d="M1011,121.2c-0.2,0-0.4-0.1-0.4,0.3c0,0.3,0.2,0.7,0.5,0.7c0.3,0,0.5-0.4,0.5-0.7
		C1011.5,121.1,1011.2,121.2,1011,121.2"/>
	<path class="st6" d="M984.6,112c0.1-0.8-0.7-1.2-1.5-1.3c-0.7,0-1.4,0.6-1.3,1.3c0,0.9,0.5,1.6,1.3,1.6
		C983.7,113.7,984.6,113,984.6,112 M983.3,112.7c-0.4,0-0.5-0.4-0.7-0.6c-0.1-0.1,0.5-0.4,0.8-0.4c0.3,0,0.6,0.1,0.6,0.4
		C984.1,112.3,983.6,112.7,983.3,112.7"/>
	<path class="st6" d="M1004.3,139.8c-0.2,0.1-0.7-0.1-0.6,0.4c0,0.4,0.4,1.1,0.6,1.1c0.2,0,0.6-0.7,0.6-1
		C1005,140,1004.7,139.7,1004.3,139.8"/>
	<path class="st6" d="M1003.2,141.9c-0.3,0-0.5,0-0.5,0.4c0,0.3,0.3,0.9,0.5,0.9c0.2,0,0.5-0.5,0.6-0.8
		C1003.7,142,1003.5,141.9,1003.2,141.9"/>
	<path class="st6" d="M1005.4,142.2c-0.2,0-0.4,0-0.4,0.2c0,0.2,0.1,0.6,0.4,0.6c0.2,0,0.4-0.2,0.4-0.5
		C1005.8,142.3,1005.7,142.2,1005.4,142.2"/>
	<path class="st6" d="M958.2,149.5c-0.5,0-0.5,0-0.5,0.4c0,0.4,0.4,1.1,0.6,1.1c0.2,0,0.7-0.8,0.7-1
		C958.9,149.5,958.5,149.5,958.2,149.5"/>
	<path class="st6" d="M987,151.5c-0.3,0-0.6-0.1-0.6,0.4c0,0.4,0.4,1,0.6,1c0.3,0,0.8-0.7,0.7-1.1
		C987.6,151.5,987.3,151.5,987,151.5"/>
	<path class="st6" d="M988.8,153.8c-0.2,0-0.4,0-0.4,0.3c0,0.3,0.1,0.6,0.4,0.6c0.3,0,0.4-0.3,0.4-0.5
		C989.3,153.7,989.1,153.8,988.8,153.8"/>
	<path class="st6" d="M979.7,127.1c0.1-0.1,0.1-0.2,0.2-0.3c0.2-0.3,0.3-0.6,0.2-0.8c-0.1-0.2-0.5-0.5-0.8-0.4
		c-0.7,0-0.9,0.1-0.8,0.7c0,0.3,0.1,0.6,0.3,0.9C979.1,127.7,979.5,127.6,979.7,127.1"/>
	<path class="st6" d="M976.8,127.3c0-0.4-0.2-0.5-0.6-0.5c-0.4,0-0.7,0.1-0.7,0.4c0,0.3,0.5,1.1,0.7,1.1
		C976.4,128.3,976.8,127.6,976.8,127.3"/>
	<path class="st6" d="M997.5,140.9c0.7-0.6,1.4-1.3,2-1.9c2-1.9,3.8-3.8,5.8-5.7c0.1-0.1,0.2-0.3,0.3-0.5c-0.1-0.3-0.3-0.5-0.6-0.6
		c-0.6-0.2-1.3-0.2-1.9-0.3c-0.9-0.1-1.7-0.1-2.6-0.2c-1.4-0.1-2.8-0.2-4.2-0.4c-0.8-0.1-1.5,0-2.3-0.2c-0.2,0-0.3-0.1-0.4-0.2
		c-0.5-1.4-1.3-2.6-1.8-4c-0.9-2.1-1.9-4-2.6-6.2c-0.1-0.3-0.2-0.6-0.6-0.6c-0.3,0-0.6,0.2-0.7,0.5c-0.4,0.9-0.9,1.8-1.3,2.7
		c-0.6,1.5-1.2,2.9-1.9,4.4c-0.4,1-1,2-1.2,3.2c0,0.1-0.1,0.3-0.3,0.4c-1.2,0.2-2.3,0.5-3.4,0.7c-1.6,0.4-3.2,0.7-4.9,1
		c-0.8,0.1-1.6,0.3-2.4,0.5c-0.5,0.1-0.6,0.8-0.3,1.1c0.6,0.7,1.3,1.4,2,1.9c1,0.8,2,1.7,3,2.5c0.7,0.6,1.4,1.2,2,1.7
		c0.3,0.3,0.7,0.5,0.8,0.8c0.1,0.2-0.2,0.6-0.3,0.9c-0.1,0.1-0.1,0.3-0.1,0.5c-0.7,2.2-1.1,4.4-1.6,6.6c-0.2,0.9-0.4,1.7-0.6,2.6
		c-0.1,0.4-0.1,0.8,0.2,1c0.3,0.2,0.7,0,1-0.2c1.5-0.8,3-1.6,4.5-2.4c1.3-0.7,2.6-1.4,3.9-2.1c0.8-0.4,1.5-0.7,2.1,0.2
		c0,0,0.1,0,0.1,0.1c2.6,1.8,5.2,3.5,7.8,5.3c0.6,0.4,1.2,0.9,1.8,1.1c0.4,0.1,0.6,0,0.6-0.4c0-0.6-0.1-1.2-0.2-1.8
		c-0.3-1.6-0.5-3.2-0.8-4.8c-0.4-2.4-0.9-4.7-1.3-7.1C997.4,141,997.4,141,997.5,140.9 M982.3,134.4c0.3,0,0.6,0,0.5,0.3
		c-0.1,0.2,0,0.6-0.4,0.6c-0.4,0-0.4-0.4-0.5-0.6C981.9,134.4,982.2,134.4,982.3,134.4 M981.6,133.5c0,0.1-0.1,0.3-0.3,0.4
		c-0.2-0.1-0.3-0.3-0.3-0.5c0-0.2,0.2-0.3,0.3-0.3C981.6,133.1,981.7,133.3,981.6,133.5 M982.5,146.3c0,0.2-0.1,0.5-0.3,0.5
		c-0.2,0-0.3-0.2-0.3-0.4c0-0.2,0.2-0.2,0.3-0.3C982.3,146.1,982.5,146.2,982.5,146.3 M983,144.6c0,0.3-0.1,0.7-0.4,0.7
		c-0.3,0-0.5-0.4-0.5-0.7c0-0.3,0.3-0.3,0.5-0.4C982.8,144.2,983,144.3,983,144.6 M982.8,133.9c-0.1,0-0.2-0.1-0.3-0.3
		c0-0.2,0.1-0.1,0.2-0.1c0.1,0,0.2,0,0.2,0.2C983,133.7,982.9,133.9,982.8,133.9 M984,145.9c-0.1,0.1,0,0.5-0.3,0.5
		c-0.3,0-0.4-0.3-0.4-0.6c0-0.3,0.3-0.3,0.4-0.3C983.9,145.5,984.1,145.6,984,145.9 M995.7,137.3c-0.1,0.2,0,0.6-0.4,0.6
		c-0.3,0-0.4-0.4-0.4-0.6c-0.1-0.3,0.3-0.2,0.5-0.3C995.5,137,995.8,137,995.7,137.3 M996,136.3c-0.3,0-0.4-0.3-0.4-0.5
		c0-0.3,0.2-0.2,0.4-0.3c0.2,0,0.4,0.1,0.3,0.3C996.3,136,996.4,136.4,996,136.3 M997.3,137c-0.1,0.2-0.1,0.6-0.4,0.6
		c-0.4,0-0.5-0.4-0.5-0.7c0-0.3,0.3-0.3,0.6-0.3C997.2,136.6,997.3,136.7,997.3,137"/>
	<path class="st6" d="M1011.9,115.6c-2-0.5-4-0.7-6-1.3c-0.3-0.1-0.5-0.2-0.5-0.5c0-0.6-0.2-1.2-0.3-1.8c-0.2-0.7-0.2-1.5-0.6-2.2
		c-0.2-0.4-0.5-0.4-0.8-0.1c-0.1,0.1-0.2,0.2-0.3,0.3c-0.7,1-1.3,2-2,3c-0.1,0.1-0.2,0.3-0.4,0.3c-0.7-0.1-1.3-0.2-2-0.3
		c-1-0.2-2-0.3-3.1-0.4c-0.2,0.1-0.5,0-0.6,0.3c-0.2,0.4,0,0.6,0.2,0.8c1.1,1.1,2,2.4,3.2,3.5c0.7,0.7,0.7,0.7,0.1,1.5
		c-0.9,1.3-1.8,2.6-2.6,4c-0.1,0.2-0.4,0.5-0.2,0.7c0.2,0.2,0.5,0.1,0.7,0c1.6-0.4,3.1-0.9,4.6-1.4c0.6-0.2,0.9-0.3,1.4,0.3
		c0.9,1.1,2,2,2.9,3c0.7,0.7,1.4,1.4,2.1,2.1c0.1,0.2,0.4,0.3,0.6,0.2c0.2-0.1,0.2-0.3,0.2-0.5c0-0.7,0-1.3-0.1-2
		c-0.1-0.8-0.1-1.6-0.2-2.4c-0.2-1.1-0.2-2.2-0.5-3.3c-0.1-0.2,0.1-0.3,0.3-0.3c1.4-0.8,2.9-1.6,4.1-2.7c0.2-0.2,0.3-0.3,0.3-0.5
		C1012.4,115.8,1012.2,115.7,1011.9,115.6 M998.2,114.8c-0.3,0-0.3-0.2-0.4-0.4c-0.1-0.2,0.2-0.2,0.3-0.3c0.2,0,0.2,0.2,0.3,0.3
		C998.4,114.6,998.4,114.8,998.2,114.8 M998.8,114.3c0-0.2,0.1-0.2,0.2-0.2c0.2,0,0.3,0.1,0.2,0.3c0,0.1,0.1,0.3-0.1,0.3
		C999,114.6,998.9,114.5,998.8,114.3 M999.2,115.6c-0.1,0-0.3-0.1-0.3-0.3c0-0.1,0.1-0.2,0.2-0.2c0.3,0,0,0.3,0.2,0.3
		C999.3,115.5,999.4,115.7,999.2,115.6 M1005,115.5c0,0.2-0.1,0.3-0.4,0.4c-0.1-0.1-0.2-0.2-0.2-0.4c0-0.2,0.1-0.2,0.3-0.2
		C1004.9,115.2,1005,115.3,1005,115.5 M1005,114.7c0,0.1,0,0.2-0.2,0.2c-0.1,0-0.2-0.1-0.2-0.3c0-0.2,0.1-0.1,0.2-0.2
		C1005,114.4,1005,114.5,1005,114.7 M1005.5,121.5c-0.2,0-0.3-0.2-0.3-0.4c0-0.2,0.2-0.2,0.3-0.2c0.2,0,0.2,0.2,0.2,0.4
		C1005.7,121.5,1005.6,121.5,1005.5,121.5 M1005.3,114.3L1005.3,114.3c0.3,0.1,0.5,0.2,0.8,0.3
		C1005.8,114.6,1005.5,114.5,1005.3,114.3"/>
	<path class="st6" d="M966.9,141.4c-0.1,1,0.7,1.9,1.5,1.9c0.8,0,1.8-1.1,1.8-2c0-0.8-0.6-1.4-1.4-1.4
		C967.6,140,967,140.3,966.9,141.4 M968.5,140.9c0.3-0.1,0.9,0.3,0.9,0.5c0,0.3-0.4,0.6-0.7,0.6c-0.3,0-0.6-0.4-0.6-0.7
		C968,141.1,968.3,141,968.5,140.9"/>
</g>
<line class="st7" x1="88.4" y1="541.3" x2="1136.3" y2="541.3"/>
<g>
	<path class="st3" d="M718.1,340.2l-1.7-28.3l6.2-8.7h1.3v37.1c0,3.4,2,4,7.6,4v8c0,2.2-1.2,3.4-3.4,3.4
		C721.7,355.7,718.8,351,718.1,340.2z"/>
	<path class="st3" d="M740.8,343.4c0.1-1.4,0.3-2.9,0.8-4.6l1.3-6.3h1.3l0.2,4.5c0.3,5.5,4.5,7.2,10,7.2v8c0,2.2-1.2,3.4-3.4,3.4
		c-5.6,0-10.4-2.4-10.2-10.6l-2.1,7.9c-2.7,1.8-7,2.7-10.5,2.7v-8.1c0-2.2,1.1-3.4,3.4-3.4C734.7,344.2,738.8,343.7,740.8,343.4z
		 M743.5,373.2l-4.9-4.9l-4.9,4.9l-5.5-5.6v-0.8l5.5-5.5l4.9,4.9l4.9-4.9l5.5,5.5c0.1,0.1,0.1,0.9,0,0.9L743.5,373.2z"/>
	<path class="st3" d="M751,347.7c0-2.2,1.2-3.4,3.4-3.4c4.1,0,8.6-0.5,12.3-1.3c-1.5-2.4-4.8-6.2-7.8-9.2l4.2-10h1.2
		c0.1,0.1,0.2,0.3,0.3,0.3l5.7,8.5l-1.5,3.6c0.1,2.7-0.4,5.3-1.4,8l-3,8c-3.9,2.2-9,3.4-13.4,3.4V347.7z M760.4,318.5l-6.2-6.2v-0.9
		l6.2-6.2l6.1,6.1c0.1,0.1,0.1,1,0,1L760.4,318.5z"/>
	<path class="st3" d="M783.3,344.6c4.5,0,9-0.9,12.1-1.5l-6.2-15.3l4.5-8.2h1.3l6.9,20.2c1.3,4,3.1,4.5,7.6,4.5v8
		c0,2.2-1.2,3.4-3.4,3.4c-4.2,0-6.4-2.4-9.2-9.4l-1-2.4l-2.4,8.3c-3.1,1.9-8,3.7-12.4,3.7c-4.4,0-7.2-1.8-7.2-8c0-2,0.3-6.1,0.7-9.5
		h1.2C776.3,343.3,778.1,344.6,783.3,344.6z"/>
	<path class="st3" d="M822.2,316.5l-2.2,2.8v6.2c0,7.8-3.4,21.1-5.9,27.4c-1.4,1-4.6,2.8-8,2.8v-8.1c0-1.8,1.6-3.4,3.4-3.4
		c1.4,0,3.3-0.1,4.8-0.3l-1.8-34.1l5.2-6.9v0.1v-0.1h1.2L822.2,316.5z"/>
	<path class="st3" d="M838.5,316.5l-2.2,2.7v19.4c0,2.4-0.3,4.8-1,7.2l-3.2,11.1h-1.3l-2.1-47.1l5.3-6.7v-0.1h1.2L838.5,316.5z"/>
	<path class="st3" d="M878.8,339.3c3.7,0,9.9,1.5,14,2.7c-6.3-8.7-12.5-10.8-15.3-10.8s-5.2,2-6.7,5l-1.2-0.5
		c3.6-9.2,7.5-14.1,12.9-14.1c7.3,0,13.7,9.7,13.7,16.7c0,2.2-0.6,5.7-1.9,8.3l-2.2,4.3c-7.7-0.8-15.7-1.5-21.6-1.5
		c-2.2,0-4,0.1-5.5,0.3l2.3,14.6c0.4,2.8,0.2,5.5-0.6,8.1l-2.6,9h-1l-2.1-12.1c-1.6-9,0.3-16.7,5.6-22.4
		C869.3,343.3,872.8,339.3,878.8,339.3z"/>
	<path class="st3" d="M904.1,340.2l-1.7-28.3l6.2-8.7h1.3v37.1c0,3.4,2,4,7.6,4v8c0,2.2-1.2,3.4-3.4,3.4
		C907.7,355.7,904.8,351,904.1,340.2z"/>
	<path class="st3" d="M925.8,373.2l-4.9-4.9l-4.9,4.9l-5.5-5.6v-0.8l5.5-5.5l4.9,4.9l4.9-4.9l5.5,5.5c0.1,0.1,0.1,0.9,0,0.9
		L925.8,373.2z M927.7,324.2l5.7,8.5l-1.5,3.6c0.1,2.7-0.4,5.3-1.4,8l-3,8c-3.9,2.2-9,3.4-13.4,3.4v-8c0-2.2,1.2-3.4,3.4-3.4
		c4.1,0,8.6-0.5,12.3-1.3c-1.5-2.4-4.8-6.2-7.8-9.2l4.2-10h1.2C927.6,323.9,927.6,324.1,927.7,324.2z"/>
	<path class="st3" d="M939.1,302.7c0.4-0.4,0.8-0.8,1.1-1.1c-2.2-2-2.4-4.8-1-7.8c1-2.2,3.2-5.5,6.5-5.5c3.6,0,5.2,3.8,3.6,7.3
		l-0.1,0.3l-1,0.2c-1-1.5-2.2-2.9-4.4-2.9c-1.6,0-3.6,0.8-3.8,1.7c-0.2,1,1.5,3.4,5.9,3.4c0.8,0,1.6-0.1,2.6-0.2l2.9-0.6l0.6,0.7
		l-2.3,4.7l-13,3.8l-0.4-0.7L939.1,302.7z M950.6,321.2l-2.7,3.1v14.3c0,2.4-0.3,4.9-1,7.2l-3.1,11.1h-1.3l-2.2-41.8l5.7-7.1v0.1
		v-0.1h1.3L950.6,321.2z"/>
	<path class="st3" d="M1000.1,363.6c-3.1,1.7-9.4,4.7-15.8,4.7c-9.9,0-13.3-6.7-13.3-15.9c0-5.7,1.3-11.1,2.5-15h1.2
		c-0.6,3-1.3,6.3-1.3,9c0,7.8,5.5,10.6,12.7,10.6c5.5,0,12.7-1.7,16.3-4l-2.2-41l6.2-8.7h1.3v37.1c0,3.4,2,4,7.6,4v8
		c0,2.2-1.2,3.4-3.4,3.4c-3.4,0-5.7-1.3-7.3-4.1c-0.3,0.7-0.5,1.5-0.8,2.2L1000.1,363.6z"/>
	<path class="st3" d="M1032.3,343.7c7.5-11.1,14.2-18.5,23.5-18.5c10.8,0,16,10.1,12.2,17.3l-0.6,1.3c2.4,0.4,5,0.5,8.2,0.5v8
		c0,2.2-1.2,3.4-3.4,3.4c-4.5,0-8-1.3-11.5-3.1c-7.3,2.2-15.9,3.1-23.7,3.1h-0.2c-8.5-0.1-12.9-3.8-13-10.9l-2.9,8.2
		c-2.4,1.7-5.9,2.7-8.9,2.7v-8c0-2.3,1.1-3.4,3.4-3.4c3,0,6.2-0.4,8.3-1c0.1-0.8,0.1-1.5,0.3-2.4l1-6.4h1.3l0.3,3.8
		C1026.7,341.3,1028.3,343,1032.3,343.7z M1038.7,323.1l-6.2-6.2V316l6.2-6.2l6.1,6.1c0.1,0.1,0.1,1,0,1L1038.7,323.1z
		 M1039.6,344.2h0.9c10.4,0,20.3-1.1,26.7-2.4c-2.8-2.7-8.6-6.8-16-6.8c-6.5,0-12.5,3.1-17.6,9
		C1035.3,344.2,1037.2,344.2,1039.6,344.2z"/>
	<path class="st3" d="M1078.9,344.2c7.9,0,16.2-0.7,20.2-1.6c0.3-2.9,0.1-5.7-0.7-8.2c-2.7,2.7-7.5,6-12.7,6
		c-6.4,0-9.6-4.8-9.6-10.1c0-10.6,5.9-16.7,12-16.7c8,0,17,10.1,11.3,31.4l-1.6,6c-6.3,3-15,4.5-23.7,4.5h-2.1v-8
		c0-2.2,1.2-3.4,3.5-3.4H1078.9z M1096.5,330.2c-2.3-3.6-6.2-6-11.1-6c-4.1,0-8.2,1.5-8.2,3.8c0,2.2,4,3.5,9.1,3.5
		C1090,331.6,1093.8,330.9,1096.5,330.2z M1087.5,307.6l-6.2-6.2v-0.9l6.2-6.2l6.1,6.1c0.1,0.1,0.1,1,0,1L1087.5,307.6z"/>
	<path class="st3" d="M1107.7,302.7c0.4-0.4,0.8-0.8,1.1-1.1c-2.2-2-2.4-4.8-1-7.8c1-2.2,3.2-5.5,6.5-5.5c3.6,0,5.2,3.8,3.6,7.3
		l-0.1,0.3l-1,0.2c-1-1.5-2.2-2.9-4.4-2.9c-1.6,0-3.6,0.8-3.8,1.7c-0.2,1,1.5,3.4,5.9,3.4c0.8,0,1.6-0.1,2.6-0.2l2.9-0.6l0.6,0.7
		l-2.3,4.7l-13,3.8l-0.4-0.7L1107.7,302.7z M1119.2,321.2l-2.7,3.1v14.3c0,2.4-0.3,4.9-1,7.2l-3.1,11.1h-1.3l-2.2-41.8l5.7-7.1v0.1
		v-0.1h1.3L1119.2,321.2z"/>
</g>
<g>
	<g class="st8">
		
			<image style="overflow:visible;opacity:0.8;" width="288" height="120" xlink:href="ECC5175F.png"  transform="matrix(1 0 0 1 606.1045 395.1045)">
		</image>
		<g>
			<path class="st4" d="M833.9,482.3H665.6c-15.2,0-27.5-12.3-27.5-27.5v0c0-15.2,12.3-27.5,27.5-27.5h168.3
				c15.2,0,27.5,12.3,27.5,27.5v0C861.4,470,849.1,482.3,833.9,482.3z"/>
		</g>
	</g>
	<g>
		<path class="st3" d="M672.9,460.3c0-1,0.3-2.2,0.6-3.3l-5.7,1.1c0.8,1.3,1.3,2.7,1.3,4.2c0,3-2.2,6.2-4.8,8.7l-5.9-1.4v-1
			c5.1-0.3,7.9-2.8,9.3-5.5c-0.6-1.1-1.3-2.7-3-4.8l0.8-2.8v0l9.3-1.5l0.5,0.6l-0.8,3.1c-0.4,1.6,0.8,2.3,3.6,2.3v2.1
			c0,1-0.6,1.6-1.6,1.6C673.8,463.4,672.9,462.1,672.9,460.3z"/>
		<path class="st3" d="M688.2,455.9c0,2.3,1.2,3,3.1,3.7v3.5h-1.2c-1.1-0.5-2.1-1.1-2.7-2.1l-0.9,2.4l-5.4-1.7l-0.5,1.2
			c-1.3,0.6-2.4,0.7-3.9,0.7v-2.1c0-1,0.6-1.6,1.6-1.6s1.8,0,2.5-0.1l1.5-4.6l1.3,0.4l-1,3.2l4.1,1.1l0.1-0.4
			c-0.1-0.6-0.1-1.3,0-2.2l0.5-3.2h0.9V455.9z M682.8,451l-2-2l-2,2l-2.1-2.2v-0.3l2.1-2.1l2,2l2-2l2.1,2.1v0.3L682.8,451z
			 M680.9,446.6l-2-2.1v-0.3l2-2l2,2v0.3L680.9,446.6z"/>
		<path class="st3" d="M716.7,453.3l1.3-2.6c1.4-0.6,3.5-1.1,5.4-1.1c3.3,0,5.8,1.6,5.8,4.7c0,1.9-1,3.7-3.4,5.1
			c1.2,0.3,2.7,0.3,4.3,0.3h1.7v2.7c0,0.7-0.4,1.1-1.6,1.1c-3.2,0-5.8-0.9-7.8-2.4l-1.5,1.1c-3.5,1.5-11.6,2.7-18.9,2.7
			c-4.8,0-9.3-0.5-12.1-1.8v-3.5h1.2c2.8,1,7.6,1.6,12.8,1.6c5.1,0,10.7-0.5,15.3-1.4l1.3-0.3c-1.5-1.6-2.8-3.5-3.9-5.7V453.3z
			 M723.5,458.6c2-0.9,4.4-2.2,4.4-3.6c0-1.3-2.1-2.1-4.7-2.1c-1.4,0-3,0.2-4.3,0.4l0.4,0.6C720.5,456.4,721.8,457.8,723.5,458.6z"
			/>
		<path class="st3" d="M734.6,459.5l-0.6-18.2l1.5-2.2l0,0v0c0.1-0.2,0.6,0,0.8,0l1,5.9l-1,1.2v4.3c0,4.3,0,8-1.2,11.7
			c-0.9,0.6-2.8,1.3-5,1.3v-2.1c0-1.1,0.5-1.6,1.6-1.6C732.5,459.7,733.1,459.7,734.6,459.5z"/>
		<path class="st3" d="M745,445l-1,1.3v10.4c0,0.8-0.1,1.6-0.2,2.4l-0.9,4.8H742l-0.7-22.1l1.7-2.7c0.1-0.2,0.6,0,0.8,0L745,445z"/>
		<path class="st3" d="M767.3,455.1c0.4,3.2,1.3,3.7,3.1,4.5v3.5h-1.2c-1.7-0.8-2.8-2-3.4-4l-0.5,1.5c-1.4,0.6-3.5,1.1-5,1.1
			c-3.2,0-4.1-2.2-4.1-3.9c0-2.3,1.5-4.5,3.9-6l4.5-2.9l0.8-2.8h0.8L767.3,455.1z M763.3,444.1l-2-2l-2,2l-2.1-2.2v-0.3l2.1-2.1l2,2
			l2-2l2.1,2.1v0.3L763.3,444.1z M757.6,455.7c0.3,1.4,1.2,2.5,3.6,2.5c1.2,0,2.9-0.3,4.5-0.7c0-0.1,0-0.2,0-0.3l-0.8-5.7
			L757.6,455.7z"/>
		<path class="st3" d="M804,456.3c2.8-2.9,6.1-5.5,9.4-5.5c4.4,0,6.4,4.3,5.1,7.4l-0.4,1c1.2,0.3,2.8,0.4,4.3,0.4v2.1
			c0,1-0.6,1.6-1.6,1.6c-2.1,0-3.9-0.6-5.5-1.4c-0.1,0-0.1,0-0.2,0.1v0c-4.5,1.8-16.4,3.5-27.5,3.5c-7.4,0-14.3-0.7-18.4-2.6v-3.5
			h1.2c4.1,1.5,11.4,2.3,19.4,2.3c3.1,0,6.4-0.1,9.6-0.4c1-1.1,2.2-2.6,3.5-4l-0.5-16l1.5-2.3v0c0.1-0.2,0.6,0,0.8,0l1,5.9l-0.9,1.1
			v4.2c0,1.3-0.1,2.6-0.4,3.8L804,456.3z M801.3,461.4c5.3-0.5,10.5-1.3,15.7-2.5c-0.2-2.6-1.7-5-5.2-5
			C807.1,453.9,803.8,458.2,801.3,461.4z"/>
		<path class="st3" d="M823,454.3l-0.2-0.3l0.4-2c0.7-0.6,1.7-1.4,3.2-1.4c3.9,0,7.5,5.3,13.2,5.3h1.4l0.3,0.4l-1,2.6h-2.5
			c-3,0-4.7,0.6-6.7,1.8c-3.5,1.9-6.7,2.9-10.2,2.9v-2.1c0-1,0.6-1.6,1.6-1.6h0.1c4.8,0,8.6-0.7,11.8-1.9c-3.4-1.5-6.3-4-9-3.8
			C824.9,454,823.5,454.2,823,454.3z M826.4,447.2l-2.2-2.2v-0.3l2.2-2.2l2.2,2.2v0.3L826.4,447.2z"/>
	</g>
</g>
<g>
	<g class="st8">
		
			<image style="overflow:visible;opacity:0.8;" width="288" height="120" xlink:href="ECC5175D.png"  transform="matrix(1 0 0 1 331.1045 395.1045)">
		</image>
		<g>
			<path class="st4" d="M559,482.3H390.7c-15.2,0-27.5-12.3-27.5-27.5v0c0-15.2,12.3-27.5,27.5-27.5H559c15.2,0,27.5,12.3,27.5,27.5
				v0C586.5,470,574.2,482.3,559,482.3z"/>
		</g>
	</g>
	<g>
		<path class="st3" d="M388.7,451.9h0.8c0.1,0.1,0.1,0.2,0.2,0.3l3,4.6l-0.7,1.6c0,0.4,0.1,0.9,0.1,1.3c0,4.1-2.3,8.3-5.1,11.3
			l-5.9-1.4v-1c5.1-0.3,8.2-3.7,9.6-7.2c-0.5-1.7-1.5-4.1-3-6.3L388.7,451.9z"/>
		<path class="st3" d="M398.6,456.5c0,1.8,0.7,2.5,2.2,3.1v3.5h-1.2c-2-0.9-2.8-2.5-2.9-5.7l-0.7-15.5l1.8-2.7h0.8V456.5z"/>
		<path class="st3" d="M438.3,442.4l-14,4.3l1.6,1.1c4.8,3.2,9.4,6.9,7.5,12.3l-0.5,1.4c-5.1,2.6-15.2,3.3-20.9,3.3
			c-4.9,0-9.6-0.5-12.4-1.8v-3.5h1.1c2.9,1.1,7.8,1.6,13.1,1.6c5.9,0,12.8-0.5,18.5-2.1c-0.7-2.8-2.4-5.4-8.2-9l-2.2-1.2l2.1-5
			l15.2-4.8l0.4,0.5L438.3,442.4z"/>
		<path class="st3" d="M443.5,448.2l4.5,3l-0.6,1.2c1.7,2.7,2.3,5.4,1.1,8l-0.8,1.8c-2.4,0.9-5.5,1.3-7.2,1.3
			c-2.9,0-4.3-1.2-4.3-3.7c0-0.6,0.1-1.9,0.2-2.9h0.8c0.2,1.5,0.3,2.9,3.8,2.9c1.4,0,4.2-0.2,6.5-0.7c-0.2-2.2-1.8-5.1-6.1-7.7
			l1-3.2L443.5,448.2C443.5,448.1,443.5,448.1,443.5,448.2z M443.2,444.7l-2.2-2.2v-0.3l2.2-2.2l2.2,2.2v0.3L443.2,444.7z"/>
		<path class="st3" d="M458.1,437.8l-0.8,1.6l-5.6,1.6l-0.2-0.3l1.2-1.1c0.3-0.3,0.5-0.5,0.7-0.6c-1-0.7-1.4-1.7-0.8-3.1
			c0.5-1,1.4-2.3,2.7-2.3c1.3,0,2.2,1.5,1.7,3l0,0.1l-0.3,0c-0.5-0.7-1-1.3-2-1.3c-0.8,0-1.6,0.4-1.7,0.8c-0.1,0.5,0.5,1.7,2.5,1.7
			c0.4,0,0.9-0.1,1.4-0.2l1-0.2L458.1,437.8z M457.3,448.1l-1,1.3v7.3c0,0.8-0.1,1.6-0.2,2.4l-0.9,4.8h-0.9l-0.7-19l1.7-2.7h0.8
			L457.3,448.1z"/>
		<path class="st3" d="M459.7,469.7v-1c5.9-0.3,10.3-4.2,10.3-8.6c-1.6,1.4-3.7,2.2-5.5,2.2c-2.9,0-4.4-2.1-4.4-4.9
			c0-4.3,2.7-6.7,5.4-6.7c3.2,0,5.8,3,5.8,8.6c0,4.8-1.9,8.1-5,11.7L459.7,469.7z M469.8,458.2c-0.8-2.6-3.3-4.2-5.4-4.2
			c-1.7,0-3,0.9-3,2.6c0,1.2,1.1,2.2,3.4,2.2C466.7,458.8,468.6,458.5,469.8,458.2z"/>
		<path class="st3" d="M493.4,455.1c0.4,3.2,1.3,3.7,3.1,4.5v3.5h-1.2c-1.7-0.8-2.8-2-3.4-4l-0.5,1.5c-1.4,0.6-3.5,1.1-5,1.1
			c-3.2,0-4.1-2.2-4.1-3.9c0-2.3,1.5-4.5,3.9-6l4.5-2.9l0.8-2.8h0.8L493.4,455.1z M489.5,444.1l-2-2l-2,2l-2.1-2.2v-0.3l2.1-2.1l2,2
			l2-2l2.1,2.1v0.3L489.5,444.1z M483.7,455.7c0.3,1.4,1.2,2.5,3.6,2.5c1.2,0,2.9-0.3,4.5-0.7c0-0.1,0-0.2,0-0.3l-0.8-5.7
			L483.7,455.7z"/>
		<path class="st3" d="M495.4,459.5h1.2c2.4,1,6.5,1.4,10.9,1.4c4.8,0,10.9-0.5,15.6-1.8c0-0.6,0-1.2,0.1-2l0.5-3.2h0.9v2.4
			c0,2.7,1.9,3.3,4.8,3.3v2.1c0,1-0.6,1.6-1.6,1.6c-2.1,0-3.8-1-4.5-3l-0.8,1.7v0c-3.2,1.3-10.3,2.5-16.7,2.5c-4.1,0-8-0.5-10.4-1.6
			V459.5z M523.6,471l-2-2l-2,2l-2.1-2.2v-0.3l2.1-2.1l2,2l2-2l2.1,2.1v0.3L523.6,471z"/>
		<path class="st3" d="M531.8,459.7c-0.9-1-1.5-2.2-1.5-3.8c0-3.1,2.2-6.9,6.1-6.9s5.4,3.8,5.9,5.1l-0.7,0.5
			c-1.1-1.1-2.9-2.2-5.3-2.2c-3,0-4.6,1.6-4.6,2.9c0,1,0.9,3.8,6.5,3.8c1,0,2.2-0.1,3.5-0.3c0.4-0.1,0.9-0.2,1.3-0.3l1.3-0.3
			l0.3,0.5l-1.2,2.8c-4.2,1.2-10.4,1.9-15.6,1.9v-2.2c0-1.1,0.5-1.6,1.5-1.6C530.2,459.7,531,459.7,531.8,459.7z"/>
		<path class="st3" d="M553.6,448.2l4.5,3l-0.6,1.2c1.7,2.7,2.3,5.4,1.1,8l-0.8,1.8c-2.4,0.9-5.5,1.3-7.2,1.3
			c-2.9,0-4.3-1.2-4.3-3.7c0-0.6,0.1-1.9,0.2-2.9h0.8c0.2,1.5,0.3,2.9,3.8,2.9c1.4,0,4.2-0.2,6.5-0.7c-0.2-2.2-1.8-5.1-6.1-7.7
			l1-3.2L553.6,448.2C553.5,448.1,553.6,448.1,553.6,448.2z"/>
		<path class="st3" d="M567.8,437.8l-0.8,1.6l-5.6,1.6l-0.2-0.3l1.2-1.1c0.3-0.3,0.5-0.5,0.7-0.6c-1-0.7-1.4-1.7-0.8-3.1
			c0.5-1,1.4-2.3,2.7-2.3c1.3,0,2.2,1.5,1.7,3l0,0.1l-0.3,0c-0.5-0.7-1-1.3-2-1.3c-0.8,0-1.6,0.4-1.7,0.8c-0.1,0.5,0.5,1.7,2.5,1.7
			c0.4,0,0.9-0.1,1.4-0.2l1-0.2L567.8,437.8z M567,448.1l-1,1.3v7.3c0,0.8-0.1,1.6-0.2,2.4l-0.9,4.8h-0.9l-0.7-19l1.7-2.7h0.8
			L567,448.1z"/>
	</g>
</g>
<g>
	<g class="st8">
		
			<image style="overflow:visible;opacity:0.8;" width="288" height="120" xlink:href="ECC51763.png"  transform="matrix(1 0 0 1 56.1045 395.1045)">
		</image>
		<g>
			<path class="st4" d="M284.2,482.3H115.8c-15.2,0-27.5-12.3-27.5-27.5v0c0-15.2,12.3-27.5,27.5-27.5h168.3
				c15.2,0,27.5,12.3,27.5,27.5v0C311.6,470,299.3,482.3,284.2,482.3z"/>
		</g>
	</g>
	<g>
		<path class="st3" d="M140,448.2l4.5,3l-0.6,1.2c1.7,2.7,2.3,5.4,1.1,8l-0.8,1.8c-2.4,0.9-5.5,1.3-7.2,1.3c-2.9,0-4.3-1.2-4.3-3.7
			c0-0.6,0.1-1.9,0.2-2.9h0.8c0.2,1.5,0.3,2.9,3.8,2.9c1.4,0,4.2-0.2,6.5-0.7c-0.2-2.2-1.8-5.1-6.1-7.7l1-3.2L140,448.2
			C139.9,448.1,140,448.1,140,448.2z"/>
		<path class="st3" d="M150.5,451.9h0.8c0.1,0.1,0.1,0.2,0.2,0.3l3,4.6l-0.7,1.6c0,0.4,0.1,0.9,0.1,1.3c0,4.1-2.3,8.3-5.1,11.3
			l-5.9-1.4v-1c5.1-0.3,8.2-3.7,9.6-7.2c-0.5-1.7-1.5-4.1-3-6.3L150.5,451.9z"/>
		<path class="st3" d="M156.5,469.7v-1c5.9-0.3,10.3-4.2,10.3-8.6c-1.6,1.4-3.7,2.2-5.5,2.2c-2.9,0-4.4-2.1-4.4-4.9
			c0-4.3,2.7-6.7,5.4-6.7c3.2,0,5.8,3,5.8,8.6c0,4.8-1.9,8.1-5,11.7L156.5,469.7z M166.5,458.2c-0.8-2.6-3.3-4.2-5.4-4.2
			c-1.7,0-3,0.9-3,2.6c0,1.2,1.1,2.2,3.4,2.2C163.4,458.8,165.4,458.5,166.5,458.2z"/>
		<path class="st3" d="M170.3,469.7v-1c5.9-0.3,10.3-4.2,10.3-8.6c-1.6,1.4-3.7,2.2-5.5,2.2c-2.9,0-4.4-2.1-4.4-4.9
			c0-4.3,2.7-6.7,5.4-6.7c3.2,0,5.8,3,5.8,8.6c0,4.8-1.9,8.1-5,11.7L170.3,469.7z M180.3,458.2c-0.8-2.6-3.3-4.2-5.4-4.2
			c-1.7,0-3,0.9-3,2.6c0,1.2,1.1,2.2,3.4,2.2C177.2,458.8,179.1,458.5,180.3,458.2z"/>
		<path class="st3" d="M210.7,457.3L210,459c0.4,1.6,0.5,3.2,0,4.5l-1,2.8c-1.6,1.5-5.6,3.1-9.4,3.1c-6,0-7.7-4.1-7.7-7.9
			c0-2.4,0.7-4.6,1.1-6.3l1,0.2c-0.3,1.4-0.7,3-0.7,4.7c0,3.1,1.6,5.7,6.7,5.7c3.5,0,7.5-1.2,8.8-2.7c-0.1-2.1-1.4-4.8-3.4-7.7
			l1.2-2.9h0.9L210.7,457.3z M200,452.4l-2.2-2.2v-0.3l2.2-2.2l2.2,2.2v0.3L200,452.4z"/>
		<path class="st3" d="M213.5,437.7c0.4-0.4,0.8-0.6,1.2-0.6c1,0,2.1,1.2,3.2,1.2c0.6,0,1.1-0.4,1.7-1.3l0.4,0.3c-0.7,2-1.5,3-2.6,3
			c-1.3,0-3-1.4-3.8-1.4l-1.3,0.8l-0.3-0.4L213.5,437.7z M218.4,448.1l-1,1.3v7.3c0,0.8-0.1,1.6-0.2,2.4l-0.9,4.8h-0.9l-0.7-19
			l1.7-2.7h0.8L218.4,448.1z"/>
		<path class="st3" d="M223.5,454.1h0.8c0,0.1,0,0.1,0.1,0.1l1.6,2.9c0.9,1.5,1.5,1.9,2.7,2.3v3.5h-1.2c-0.3-0.2-0.7-0.4-1-0.8
			c-0.3,3.6-2.3,6.7-4.8,9.1l-5.8-1.2V469c4.9-0.2,7.9-3.1,9.2-6.4c-0.2-1-1.3-3.5-2.5-5.5L223.5,454.1z"/>
		<path class="st3" d="M227.5,459.5h1.2c3.3,1.3,9,1.9,15.3,1.9c6.3,0,13.2-0.6,18.8-1.7c1-0.2,1.6-0.4,2.4-0.6
			c0.2-1.3,0.3-2.6,0.2-3.6c-1.2,0.9-3.3,2-5.4,2c-3.2,0-4.6-2.4-4.6-4.7c0-4.4,2.7-6.8,5.3-6.8c3.8,0,7.6,5,5.7,13.7l-0.5,1.9
			c-0.3,0.2-1.1,0.5-1.4,0.7v0v0c-3.8,1.6-13.5,3-22.4,3c-5.8,0-11.3-0.6-14.5-2.1V459.5z M262.6,442.6l-2-2l-2,2l-2.1-2.2v-0.3
			l2.1-2.1l2,2l2-2l2.1,2.1v0.3L262.6,442.6z M264.9,453.6c-0.7-2.7-2.5-4.2-4.9-4.2c-2.4,0-3.5,1.5-3.5,2.6c0,1,1,2.2,3.8,2.2
			C261.6,454.1,263.6,453.9,264.9,453.6z"/>
	</g>
</g>
<g>
	<g class="st8">
		
			<image style="overflow:visible;opacity:0.8;" width="288" height="120" xlink:href="ECC51765.png"  transform="matrix(1 0 0 1 881.1045 395.1045)">
		</image>
		<g>
			<path class="st4" d="M1108.8,482.3H940.5c-15.2,0-27.5-12.3-27.5-27.5v0c0-15.2,12.3-27.5,27.5-27.5h168.3
				c15.2,0,27.5,12.3,27.5,27.5v0C1136.3,470,1124,482.3,1108.8,482.3z"/>
		</g>
	</g>
	<g>
		<g>
			<path class="st3" d="M943.8,451.2l-0.1,1.2c2.5,1.9,3.4,4.3,2.2,7.3l-1,2.4c-1.2,0.9-3.9,1.7-6,1.7c-3.4,0-4.5-1.8-4.5-4.2
				c0-2.2,0.9-4.6,2.4-6.9l0.3-3.2h0.4h0h0.4L943.8,451.2z M941.8,446.2l-2-2l-2,2l-2.1-2.2v-0.3l2.1-2.1l2,2l2-2l2.1,2.1v0.3
				L941.8,446.2z M938,453.5c-1.1,1.4-2.2,3-2.2,4.4c0,1.3,1.1,2.2,4,2.2c2.3,0,3.9-0.6,5-1.1C944.6,456.8,942.6,454.8,938,453.5z"
				/>
			<path class="st3" d="M960.6,458l-1,0.8c-1-4.6-2.6-7.8-6.6-10.5l-1,0.5l-2.7-0.7c-1.6-0.4-2.3-1.5-2-3.1l0.4-2.3l0.7-0.4
				C954.9,444.2,960.4,450.8,960.6,458z"/>
			<path class="st3" d="M949.6,462.2c8.8-1.5,14.1-4.7,14-15.2l0-5.2l1.7-2.6h0.8V457c0,2.5,2.2,2.7,4.3,2.7v2.1
				c0,1.1-0.5,1.6-1.6,1.6c-2.6,0-4.2-1.6-4.4-6.6l-0.1-4.1h-0.2c-0.9,4.4-3.2,8.9-8.7,11.5l-5.8-1.2V462.2z"/>
			<path class="st3" d="M978.8,459.4c3.2-3.7,7.1-8.6,11.9-8.6c4.6,0,7.2,4.4,5.6,7.4l-0.6,1.1c1.2,0.3,2.7,0.4,4.2,0.4v2.1
				c0,1-0.6,1.6-1.6,1.6c-2,0-3.9-0.5-5.4-1.3c-3.3,0.8-7.6,1.3-11.6,1.3h0c-2.8,0-4.8-0.9-5.6-2.9L975,462c-1.4,1-3.7,1.4-6.2,1.4
				v-2.1c0-1,0.6-1.6,1.6-1.6c1.5,0,3.5-0.3,4.8-0.7c0-0.6,0-1.2,0.1-1.9l0.4-2.4h0.9v1.6C976.7,458.1,977.5,458.9,978.8,459.4z
				 M981.5,459.7h1.6c4.7,0,8.6-0.5,11.6-1.3c-0.4-2-2.2-4.5-5.7-4.5c-3.9,0-6.9,3.2-8.9,5.7C980.5,459.7,981,459.7,981.5,459.7z"/>
			<path class="st3" d="M1002.6,459.5l-0.6-18.2l1.5-2.2l0,0v0c0.1-0.2,0.6,0,0.8,0l1,5.9l-1,1.2v4.3c0,4.3,0,8-1.2,11.7
				c-0.9,0.6-2.8,1.3-5,1.3v-2.1c0-1.1,0.5-1.6,1.6-1.6C1000.5,459.7,1001,459.7,1002.6,459.5z"/>
			<path class="st3" d="M1012.9,445l-1,1.3v10.4c0,0.8-0.1,1.6-0.2,2.4l-0.9,4.8h-0.9l-0.7-22.1l1.7-2.7c0.1-0.2,0.6,0,0.8,0
				L1012.9,445z"/>
			<path class="st3" d="M1034.2,460.2c4.2,0,9.1-0.9,11.6-1.3c0-0.5,0-1.1,0.1-1.7l0.5-3.2h0.9v2.4c0,2.7,1.9,3.3,4.8,3.3v2.1
				c0,1-0.6,1.6-1.6,1.6c-2.2,0-4-1-4.5-3.3l-0.9,1.6c-2.8,0.9-8,2.2-12.5,2.2c-4.7,0-8.5-1.4-8.5-6.4c0-1.4,0.3-3.4,0.8-5.6l1,0.2
				c-0.1,1.1-0.3,2-0.3,2.8C1025.6,459,1029.4,460.2,1034.2,460.2z M1037.4,452.4l-2-2l-2,2l-2.1-2.2v-0.3l2.1-2.1l2,2l2-2l2.1,2.1
				v0.3L1037.4,452.4z"/>
			<path class="st3" d="M1057.2,458.9c0-0.5,0-1.1,0.1-1.8l0.5-3.2h0.9v2.4c0,2.7,1.9,3.3,4.8,3.3v2.1c0,1-0.6,1.6-1.6,1.6
				c-2.1,0-3.8-0.9-4.4-2.9l-0.4,1.4c-1.5,1-3.9,1.6-6.5,1.6v-2.1c0-1,0.6-1.6,1.6-1.6C1053.7,459.7,1055.8,459.3,1057.2,458.9z
				 M1057.6,471l-2-2l-2,2l-2.1-2.2v-0.3l2.1-2.1l2,2l2-2l2.1,2.1v0.3L1057.6,471z"/>
			<path class="st3" d="M1066.1,459.7c3.1,0,5.8-0.3,7.6-0.6c0.2-1.3,0.3-2.6,0.2-3.7c-1.2,1-3.3,2-5.5,2c-3.2,0-4.4-2.4-4.4-4.7
				c0-4.4,2.6-6.8,5.3-6.8c3.8,0,7.6,4.8,5.7,13.7l-0.5,2c-2.9,1.3-6.5,1.8-10.6,1.8h-2v-2.1c0-1,0.6-1.6,1.6-1.6H1066.1z
				 M1073.6,453.6c-0.7-2.7-2.5-4.2-4.9-4.2c-2.4,0-3.5,1.5-3.5,2.5c0,1,1,2.2,3.8,2.2C1070.4,454.1,1072.4,453.9,1073.6,453.6z
				 M1071.4,442.6l-2-2l-2,2l-2.1-2.2v-0.3l2.1-2.1l2,2l2-2l2.1,2.1v0.3L1071.4,442.6z"/>
			<path class="st3" d="M1083.3,445l-1,1.3v10.4c0,0.8-0.1,1.6-0.2,2.4l-0.9,4.8h-0.9l-0.7-22.1l1.7-2.7c0.1-0.2,0.6,0,0.8,0
				L1083.3,445z"/>
			<path class="st3" d="M1097.1,463.4c-0.6,3.3-2.3,5.7-4.7,8.6l-6.7-1.1v-1c5-0.2,9.1-3.1,10.3-6.4h-5.4c-2.8,0-4.3-2.1-4.3-5.2
				c0-4.2,2.7-6.7,5.3-6.7c2.7,0,5.3,2.9,5.7,8.1h2.8v2.1c0,1-0.6,1.6-1.6,1.6H1097.1z M1090.9,459.7h5.1c-0.8-2.8-3.3-4.7-5.5-4.7
				c-1.7,0-3.1,0.9-3.1,2.6C1087.4,458.8,1088.6,459.7,1090.9,459.7z"/>
			<path class="st3" d="M1105,455.7c1.4-2.6,3.3-5.1,5.9-5.1c3.4,0,5.5,4.4,4.2,8.6l-0.1,0.3c-0.4,1.3-0.9,2.1-1.8,3.7
				c-3-0.5-5.3-1.1-7.5-2.1l-1.6-0.7l-1.2,2.5c-1,0.3-2.6,0.6-4.4,0.6v-2.1c0-1,0.6-1.6,1.6-1.6c1.2,0,2.1-0.1,2.9-0.3L1105,455.7z
				 M1113.4,459.7c0.2-3.9-1.8-6.1-3.9-6.1c-1.6,0-2.7,1.3-3.5,2.7l-0.5,0.9C1108.4,458.5,1111.3,459.3,1113.4,459.7z"/>
		</g>
	</g>
</g>
<path class="st3" d="M107.3,78.4h57.3v1.3c0,14.2,0,28.5,0,42.7c0,4.8-2.6,7.4-7.4,7.4c-1.2,0-2.4,0-3.5,0c0,5.1,0.1,10.1,0,15
	c0,3.1-2.7,5.6-5.8,5.7c-3.3,0.1-6.3-2.1-6.4-5.3c-0.2-5.1-0.1-10.2-0.1-15.4h-11c0,2,0,4,0,6.1c0,3,0.1,6-0.1,8.9
	c-0.1,2.9-2.4,5.3-5.2,5.6c-3,0.4-5.8-1.4-6.7-4.2c-0.2-0.6-0.3-1.3-0.3-2c0-4.2,0-8.5,0-12.7c0-0.6,0.1-1.2,0.2-1.9
	c-1.4,0-2.8,0-4.2,0c-4.1,0-6.8-2.7-6.8-6.9c0-14.5,0-29,0-43.4L107.3,78.4L107.3,78.4z M164.6,74.1h-57.3
	c0.5-9.9,6.2-16.1,14.5-20.4c-0.9-1.3-1.7-2.6-2.5-3.8c-0.6-0.9-1.2-1.8-1.8-2.7c-0.4-0.6-1.1-1.4-0.2-2c1-0.7,1.4,0.3,1.9,0.9
	c1.1,1.6,2.1,3.2,3.2,4.8c1.3,2,1.3,2,3.6,1.3c7.2-2.1,14.3-2,21.3,0.5c0.3,0.1,0.5,0.2,0.8,0.3c1.5-2.2,2.9-4.4,4.4-6.5
	c0.2-0.3,0.3-0.5,0.5-0.8c0.4-0.6,0.9-0.9,1.6-0.4c0.6,0.4,0.5,1,0.1,1.6c-1.3,1.9-2.5,3.8-3.8,5.7c-0.3,0.4-0.6,0.8-0.9,1.3
	C158.4,58,164.1,64.2,164.6,74.1L164.6,74.1z M151.3,63c0-1.7-1.4-3.1-3-3.1c-1.7,0-3.1,1.3-3.1,3c0,1.7,1.3,3,3,3.1
	C149.9,66,151.2,64.7,151.3,63L151.3,63z M126.7,62.9c0-1.7-1.4-3-3.1-3c-1.7,0-3.1,1.5-3,3.1c0,1.7,1.4,3,3.1,3
	C125.4,66,126.7,64.6,126.7,62.9L126.7,62.9z M180.9,97.6c0,4.3,0,8.5,0,12.8c0,3.8-2.6,6.5-6.1,6.5c-3.5,0-6.1-2.7-6.1-6.5
	c0-8.6,0-17.3,0-25.9c0-3.2,2.3-5.7,5.4-6.1c3.2-0.3,6,1.7,6.7,4.8c0.1,0.6,0.1,1.2,0.1,1.9C180.9,89.2,180.9,93.4,180.9,97.6
	L180.9,97.6z M103.2,97.6c0,4.5,0,8.9,0,13.4c0,2.7-2,5-4.6,5.7c-2.6,0.7-5.4-0.4-6.7-2.7c-0.5-0.9-0.9-2.1-0.9-3.2
	c-0.1-8.8-0.1-17.5,0-26.3c0-3.5,2.7-6.1,6.1-6.1c3.4,0,6.1,2.6,6.1,6.1C103.2,88.8,103.2,93.2,103.2,97.6
	C103.2,97.6,103.2,97.6,103.2,97.6L103.2,97.6L103.2,97.6z"/>
<sodipodi:namedview  bordercolor="#666666" borderopacity="1" gridtolerance="10" guidetolerance="10" id="namedview2989" objecttolerance="10" pagecolor="#ffffff" showgrid="false">
	</sodipodi:namedview>
<path id="path2984" class="st3" d="M368.3,145.6c-13.5-2.7-25.7-5.1-27.1-5.4l-2.5-0.5v-19.3v-19.3l16,0.1
	c8.8,0.1,21.3,0.3,27.9,0.4l11.9,0.3v24.3c0,22.9,0,24.3-0.8,24.3C393.2,150.5,381.8,148.3,368.3,145.6z M314.7,134.9l-16.8-3.3
	l-0.1-15.5l-0.1-15.5l16.9,0.2c9.3,0.1,16.9,0.2,17,0.3c0.1,0.1,0.1,8.4,0,18.6l-0.1,18.5L314.7,134.9z M297.7,79.4
	c0-8.5,0.1-15.5,0.1-15.5c0.1,0,7.5-1.5,16.4-3.3c9-1.8,16.5-3.3,16.9-3.3c0.4,0,0.6,3.7,0.6,18.4v18.4l-8.8,0.3
	c-4.8,0.2-12.5,0.3-17,0.3l-8.2,0V79.4L297.7,79.4z M338.7,75.2V55.8l27.1-5.4c14.9-2.9,27.4-5.4,27.9-5.6c0.7-0.2,0.8,1.2,0.8,24.4
	V94h-14.7c-8.1,0-20.6,0.1-27.9,0.3l-13.1,0.3V75.2L338.7,75.2z"/>
<g>
	<g>
		<path class="st3" d="M91.7,193.3v12.3h-4.1v-5.7H76v5.7H72v-12.3c0-6.7,4-10.2,9.9-10.2C87.7,183.1,91.7,186.6,91.7,193.3z
			 M87.6,196.4v-3.5c0-4.2-2.3-6.2-5.8-6.2c-3.5,0-5.8,2-5.8,6.2v3.5H87.6z"/>
		<path class="st3" d="M113.7,195.9v9.7h-4v-9.2c0-3-1.5-4.5-4-4.5c-2.8,0-4.7,1.7-4.7,5.1v8.6h-4v-16.9h3.8v2.2
			c1.3-1.6,3.4-2.4,5.8-2.4C110.7,188.4,113.7,190.8,113.7,195.9z"/>
		<path class="st3" d="M135.4,182v23.5h-3.8v-2.2c-1.3,1.6-3.3,2.4-5.6,2.4c-4.9,0-8.6-3.4-8.6-8.7s3.6-8.7,8.6-8.7
			c2.2,0,4.1,0.7,5.5,2.3V182H135.4z M131.5,197.1c0-3.2-2.2-5.3-5-5.3c-2.9,0-5,2.1-5,5.3s2.2,5.3,5,5.3
			C129.3,202.4,131.5,200.3,131.5,197.1z"/>
		<path class="st3" d="M150.4,188.4v3.8c-0.3-0.1-0.6-0.1-0.9-0.1c-3,0-4.9,1.8-4.9,5.2v8.2h-4v-16.9h3.8v2.5
			C145.5,189.3,147.5,188.4,150.4,188.4z"/>
		<path class="st3" d="M152.5,197.1c0-5.1,3.8-8.7,9-8.7c5.3,0,9,3.6,9,8.7s-3.8,8.7-9,8.7C156.3,205.8,152.5,202.2,152.5,197.1z
			 M166.5,197.1c0-3.2-2.2-5.3-5-5.3c-2.9,0-5,2.1-5,5.3s2.2,5.3,5,5.3C164.4,202.4,166.5,200.3,166.5,197.1z"/>
		<path class="st3" d="M173.8,183.5c0-1.3,1.1-2.4,2.5-2.4c1.5,0,2.5,1,2.5,2.3c0,1.4-1,2.5-2.5,2.5
			C174.9,185.8,173.8,184.8,173.8,183.5z M174.3,188.6h4v16.9h-4V188.6z"/>
		<path class="st3" d="M200.1,182v23.5h-3.8v-2.2c-1.3,1.6-3.3,2.4-5.6,2.4c-4.9,0-8.6-3.4-8.6-8.7s3.6-8.7,8.6-8.7
			c2.2,0,4.1,0.7,5.5,2.3V182H200.1z M196.2,197.1c0-3.2-2.2-5.3-5-5.3c-2.9,0-5,2.1-5,5.3s2.2,5.3,5,5.3
			C194,202.4,196.2,200.3,196.2,197.1z"/>
		<path class="st3" d="M124,231.3v12.3h-4.1v-5.7h-11.5v5.7h-4.1v-12.3c0-6.7,4-10.2,9.9-10.2C120.1,221.1,124,224.6,124,231.3z
			 M119.9,234.4v-3.5c0-4.2-2.3-6.2-5.8-6.2c-3.5,0-5.8,2-5.8,6.2v3.5H119.9z"/>
		<path class="st3" d="M147.4,235.1c0,5.3-3.6,8.7-8.6,8.7c-2.2,0-4.1-0.7-5.4-2.3v8.2h-4v-23.1h3.8v2.2c1.3-1.6,3.3-2.4,5.6-2.4
			C143.7,226.5,147.4,229.9,147.4,235.1z M143.4,235.1c0-3.2-2.2-5.3-5-5.3c-2.9,0-5,2.1-5,5.3s2.2,5.3,5,5.3
			C141.2,240.4,143.4,238.4,143.4,235.1z"/>
		<path class="st3" d="M169.1,235.1c0,5.3-3.6,8.7-8.6,8.7c-2.2,0-4.1-0.7-5.4-2.3v8.2h-4v-23.1h3.8v2.2c1.3-1.6,3.3-2.4,5.6-2.4
			C165.5,226.5,169.1,229.9,169.1,235.1z M165.1,235.1c0-3.2-2.2-5.3-5-5.3c-2.9,0-5,2.1-5,5.3s2.2,5.3,5,5.3
			C163,240.4,165.1,238.4,165.1,235.1z"/>
	</g>
</g>
<g>
	<g>
		<path class="st3" d="M294.5,183.4v13.2c0,6.1-3.3,9.3-9,9.3c-3.2,0-5.7-1.1-7.1-2.8c-1.4,1.7-3.8,2.8-7,2.8c-5.7,0-9-3.2-9-9.3
			v-13.2h4.1v13.1c0,4.1,1.8,5.8,4.9,5.8c3.1,0,5-1.7,5-5.8v-13.1h4.1v13.1c0,4.1,1.9,5.8,5,5.8c3,0,4.9-1.7,4.9-5.8v-13.1H294.5z"
			/>
		<path class="st3" d="M299.4,183.5c0-1.3,1.1-2.4,2.5-2.4c1.5,0,2.5,1,2.5,2.3c0,1.4-1,2.5-2.5,2.5
			C300.4,185.8,299.4,184.8,299.4,183.5z M299.9,188.6h4v16.9h-4V188.6z"/>
		<path class="st3" d="M325.7,195.9v9.7h-4v-9.2c0-3-1.5-4.5-4-4.5c-2.8,0-4.7,1.7-4.7,5.1v8.6h-4v-16.9h3.8v2.2
			c1.3-1.6,3.4-2.4,5.8-2.4C322.7,188.4,325.7,190.8,325.7,195.9z"/>
		<path class="st3" d="M347.4,182v23.5h-3.8v-2.2c-1.3,1.6-3.3,2.4-5.6,2.4c-4.9,0-8.6-3.4-8.6-8.7s3.6-8.7,8.6-8.7
			c2.2,0,4.1,0.7,5.5,2.3V182H347.4z M343.5,197.1c0-3.2-2.2-5.3-5-5.3c-2.9,0-5,2.1-5,5.3s2.2,5.3,5,5.3
			C341.3,202.4,343.5,200.3,343.5,197.1z"/>
		<path class="st3" d="M351.2,197.1c0-5.1,3.8-8.7,9-8.7c5.3,0,9,3.6,9,8.7s-3.8,8.7-9,8.7C355,205.8,351.2,202.2,351.2,197.1z
			 M365.2,197.1c0-3.2-2.2-5.3-5-5.3c-2.9,0-5,2.1-5,5.3s2.2,5.3,5,5.3C363,202.4,365.2,200.3,365.2,197.1z"/>
		<path class="st3" d="M399,188.6v9.3c0,4.9-2.6,7.8-7.5,7.8c-2.4,0-4.4-0.7-5.6-2.6c-1.2,1.8-3,2.6-5.6,2.6c-4.9,0-7.4-2.9-7.4-7.8
			v-9.3h4v9c0,3.2,1,4.7,3.5,4.7c2.5,0,3.6-1.5,3.6-4.7v-9h4v9c0,3.2,1.1,4.7,3.6,4.7c2.5,0,3.5-1.5,3.5-4.7v-9H399z"/>
		<path class="st3" d="M402.1,203.9l1.5-3c1.5,1,3.8,1.7,5.9,1.7c2.5,0,3.5-0.7,3.5-1.9c0-3.2-10.5-0.2-10.5-6.9
			c0-3.2,2.9-5.3,7.4-5.3c2.2,0,4.8,0.5,6.3,1.5l-1.5,3c-1.6-1-3.2-1.3-4.8-1.3c-2.4,0-3.5,0.8-3.5,1.9c0,3.4,10.5,0.4,10.5,7
			c0,3.2-2.9,5.2-7.7,5.2C406.5,205.8,403.7,205,402.1,203.9z"/>
		<path class="st3" d="M326.8,231.3v12.3h-4.1v-5.7h-11.5v5.7h-4.1v-12.3c0-6.7,4-10.2,9.9-10.2
			C322.8,221.1,326.8,224.6,326.8,231.3z M322.7,234.4v-3.5c0-4.2-2.3-6.2-5.8-6.2c-3.5,0-5.8,2-5.8,6.2v3.5H322.7z"/>
		<path class="st3" d="M350.1,235.1c0,5.3-3.6,8.7-8.6,8.7c-2.2,0-4.1-0.7-5.4-2.3v8.2h-4v-23.1h3.8v2.2c1.3-1.6,3.3-2.4,5.6-2.4
			C346.5,226.5,350.1,229.9,350.1,235.1z M346.1,235.1c0-3.2-2.2-5.3-5-5.3c-2.9,0-5,2.1-5,5.3s2.2,5.3,5,5.3
			C344,240.4,346.1,238.4,346.1,235.1z"/>
		<path class="st3" d="M371.9,235.1c0,5.3-3.6,8.7-8.6,8.7c-2.2,0-4.1-0.7-5.4-2.3v8.2h-4v-23.1h3.8v2.2c1.3-1.6,3.3-2.4,5.6-2.4
			C368.2,226.5,371.9,229.9,371.9,235.1z M367.9,235.1c0-3.2-2.2-5.3-5-5.3c-2.9,0-5,2.1-5,5.3s2.2,5.3,5,5.3
			C365.7,240.4,367.9,238.4,367.9,235.1z"/>
	</g>
</g>
</svg>
