<?xml version="1.0" encoding="UTF-8"?>
<svg id="Layer_2" data-name="Layer 2" xmlns="http://www.w3.org/2000/svg" viewBox="0 0 192 192">
  <defs>
    <style>
      .cls-1 {
        fill: #fff;
      }

      .cls-2 {
        fill: #e8c274;
      }

      .cls-3 {
        fill: #09231b;
      }
    </style>
  </defs>
  <g id="Layer_1-2" data-name="Layer 1">
    <g>
      <rect class="cls-3" y="0" width="192" height="192" rx="64.43" ry="64.43"/>
      <g>
        <path class="cls-1" d="m57.72,124.33c5.44,0,15.16-1.71,21.99-5.02l4.27-9.39c6.08-13.45,3.63-21.88-2.24-29.78l2.24-4.16-15.37-10.25h-2.13l-5.44,19.11c11.74,5.87,20.49,11.74,23.7,18.36-6.08.43-18.25.96-23.48.96-12.92,0-12.06-3.2-13.66-8.86h-2.13c-.43,5.66-.85,12.7-.85,15.48,0,9.39,4.7,13.56,13.13,13.56Z"/>
        <path class="cls-1" d="m104.37,126.04l5.66-17.51c1.28-4.06,1.92-8.22,1.92-12.49v-27.11l3.74-4.38-5.76-21.35h-2.13l-9.18,11.31,3.63,71.52h2.13Z"/>
        <path class="cls-2" d="m143.86,56.87c.11-.11.11-1.71,0-1.81l-10.35-10.35-10.46,10.46v1.6l10.46,10.46,10.35-10.35Z"/>
        <path class="cls-1" d="m134.57,75.65h-2.13l-7.26,17.29c5.44,5.44,12.6,11.96,17.08,19.21-3.42,11.74-19.11,19.43-38.85,22.95v2.13l22.95,11.63c10.57-12.28,18.15-28.39,18.15-44.19,0-1.71-.11-3.52-.43-5.34l3.42-7.79-12.92-15.9Z"/>
      </g>
    </g>
  </g>
</svg>