<?xml version="1.0" encoding="UTF-8"?>
<svg id="Layer_2" data-name="Layer 2" xmlns="http://www.w3.org/2000/svg" viewBox="0 0 192 192">
  <defs>
    <style>
      .cls-1 {
        fill: #fff;
      }

      .cls-2 {
        fill: #e8c274;
      }

      .cls-3 {
        fill: #09231b;
      }
    </style>
  </defs>
  <g id="Layer_1-2" data-name="Layer 1">
    <g>
      <rect class="cls-3" width="192" height="192" rx="64.43" ry="64.43"/>
      <g>
        <path class="cls-1" d="m86.08,87.67c2.6,0,7.23-.81,10.48-2.39l2.04-4.48c2.9-6.41,1.73-10.43-1.07-14.2l1.07-1.99-7.33-4.89h-1.02l-2.6,9.11c5.6,2.8,9.77,5.6,11.3,8.75-2.9.2-8.7.46-11.2.46-6.16,0-5.75-1.53-6.51-4.22h-1.02c-.2,2.7-.41,6.06-.41,7.38,0,4.48,2.24,6.46,6.26,6.46Z"/>
        <path class="cls-1" d="m108.32,88.49l2.7-8.35c.61-1.93.92-3.92.92-5.96v-12.93l1.78-2.09-2.75-10.18h-1.02l-4.38,5.4,1.73,34.1h1.02Z"/>
        <path class="cls-1" d="m127.15,55.5c.05-.05.05-.81,0-.87l-4.94-4.94-4.99,4.99v.76l4.99,4.99,4.94-4.94Z"/>
        <path class="cls-1" d="m122.73,64.46h-1.02l-3.46,8.25c2.6,2.6,6.01,5.7,8.14,9.16-1.63,5.6-9.11,9.26-18.53,10.94v1.02l10.94,5.55c5.04-5.85,8.65-13.54,8.65-21.07,0-.81-.05-1.68-.2-2.54l1.63-3.72-6.16-7.58Z"/>
        <path class="cls-1" d="m85.89,97.74c.05-.05.05-.71,0-.76l-4.17-4.17-4.28,4.22v.61l4.28,4.28,4.17-4.17Z"/>
        <path class="cls-1" d="m81.82,106.55l3.82,3.82,4.28-4.28c.05-.05.05-.71,0-.76l-4.28-4.28-3.82,3.82-3.82-3.82-4.33,4.33v.66l4.33,4.33,3.82-3.82Z"/>
        <path class="cls-1" d="m131.8,92.81l-4.28,5.4,1.48,23.41c-.71.1-2.24.25-3.26.25h-9.16c3.56-2.29,5.14-5.14,5.14-8.14,0-5.75-4.89-7.58-9.98-7.58-3,0-6.06.66-8.35,1.53l-3.1,6.82v.76c1.43,2.39,2.85,4.58,4.38,6.51-1.32.1-2.9.1-5.14.1-3.56,0-6.92-.31-7.07-4.07l-.2-4.33h-1.32l-1.93,7.99-6.67-1.37.97-4.43-1.48-.31-1.78,6.31c-1.53.2-3.16.2-4.58.2-.02,0-.03,0-.05,0h0c-4.43,0-5.5-.82-4.73-3.26l1.22-3.92-1.07-1.63-17.31,2.95-1.98,6.36c3.31,1.43,6.31,2.85,9.11,4.89-2.39,4.28-8.65,7.63-17.36,9.26v1.02l10.89,5.55c4.48-5.45,7.28-10.28,7.28-14.71,0-1.73-.41-3.41-1.32-5.14l8.6-2.14c-.2,1.12-.36,2.29-.36,3.56,0,4.17,1.58,6.82,4.53,6.82.02,0,.03,0,.05,0h0c2.19,0,3.31-.25,4.73-1.27l.71-1.78,9.16,2.09,1.48-6.06c.31,5.55,4.07,7.02,8.04,7.02h0c2.44,0,4.58-.56,6.92-1.43l4.73-3.87c3.87,3.36,8.45,5.29,14.56,5.29h0c.08,0,.15,0,.22,0,0,0,0,0,.01,0,.07,0,.14,0,.21-.01,0,0,0,0,.01,0,.03,0,.06,0,.09,0,2.25-.2,4.4-1.55,5.2-2.21,1.53-4.22,4.73-14.66,4.73-20.05v-4.12l1.78-2.09-2.75-10.18h-1.02Zm-26.16,24.18l-1.37-2.09c2.39-.2,5.34-.41,8.04-.41,4.02,0,7.89.51,7.89,2.19,0,1.53-7.23,3.87-10.28,4.48-1.63-.66-2.8-1.88-4.28-4.17Z"/>
        <path class="cls-1" d="m146.05,92.81h-1.02l-4.38,5.4,1.73,34.1h1.02l2.7-8.35c.61-1.93.92-3.92.92-5.96v-12.93l1.78-2.09-2.75-10.18Z"/>
      </g>
      <g>
        <path class="cls-2" d="m75.22,71.1c-.18.01-.4-.08-.37.26.03.32.16.66.44.66.26,0,.43-.37.42-.66,0-.3-.27-.27-.49-.27Z"/>
        <path class="cls-2" d="m50.56,62.58c.07-.78-.66-1.14-1.4-1.19-.68-.04-1.27.53-1.24,1.2.04.87.45,1.46,1.22,1.49.61.02,1.44-.55,1.42-1.51Zm-1.2.62c-.39,0-.49-.33-.61-.6-.06-.13.46-.42.74-.42.29,0,.54.08.59.4.04.23-.45.62-.72.62Z"/>
        <path class="cls-2" d="m69,88.46c-.2.05-.63-.09-.59.4.03.4.35,1,.58,1.01.18,0,.6-.61.6-.89,0-.34-.24-.61-.59-.53Z"/>
        <path class="cls-2" d="m67.93,90.42c-.27,0-.49.04-.51.36-.02.32.28.81.48.82.21.01.51-.44.52-.76,0-.32-.18-.43-.49-.43Z"/>
        <path class="cls-2" d="m70,90.7c-.17.01-.42-.03-.39.23.03.22.07.56.36.57.17,0,.35-.2.36-.51.03-.18-.07-.3-.33-.28Z"/>
        <path class="cls-2" d="m26,97.5c-.47,0-.5.02-.5.36,0,.36.36,1.01.56.99.17-.02.64-.72.61-.97-.05-.4-.37-.39-.67-.39Z"/>
        <path class="cls-2" d="m52.86,99.41c-.3-.01-.6-.05-.6.39,0,.4.33.98.56.97.26,0,.7-.63.66-1-.04-.34-.33-.39-.62-.36Z"/>
        <path class="cls-2" d="m54.53,101.49c-.21,0-.4-.01-.37.29.03.28.09.59.4.6.3,0,.36-.32.42-.49.03-.44-.22-.39-.45-.4Z"/>
        <path class="cls-2" d="m46.08,76.69c.06-.1.11-.21.17-.31.15-.24.3-.56.17-.78-.13-.23-.42-.43-.73-.33-.67,0-.83.12-.76.61.04.28.13.58.27.83.25.46.61.44.88-.02Z"/>
        <path class="cls-2" d="m43.38,76.84c.02-.38-.17-.51-.52-.48-.4,0-.65.13-.66.36-.01.28.43.99.62,1,.16.01.55-.6.56-.88Z"/>
        <path class="cls-2" d="m62.61,89.51c.68-.55,1.28-1.19,1.91-1.8,1.82-1.75,3.58-3.56,5.37-5.34.13-.13.21-.28.26-.47-.07-.3-.29-.47-.57-.55-.58-.17-1.18-.23-1.79-.28-.8-.06-1.61-.12-2.41-.2-1.29-.13-2.59-.21-3.87-.36-.7-.08-1.41,0-2.11-.15-.17-.04-.27-.08-.33-.23-.48-1.28-1.17-2.46-1.7-3.71-.81-1.91-1.78-3.75-2.39-5.75-.08-.26-.19-.56-.52-.56-.29,0-.52.18-.65.47-.38.84-.8,1.67-1.17,2.52-.59,1.36-1.16,2.72-1.74,4.08-.41.97-.94,1.89-1.12,2.95-.02.13-.05.28-.32.33-1.07.18-2.14.43-3.2.66-1.51.33-3.01.69-4.54.95-.74.13-1.48.27-2.2.46-.44.11-.6.74-.29,1.06.61.63,1.21,1.26,1.89,1.8.96.75,1.89,1.54,2.8,2.35.63.55,1.27,1.08,1.9,1.63.28.24.65.46.78.78.09.2-.19.55-.29.84-.05.14-.08.28-.12.42-.61,2.04-1.04,4.12-1.51,6.19-.19.81-.38,1.63-.57,2.44-.08.34-.13.71.18.93.31.22.63-.01.91-.16,1.4-.75,2.78-1.52,4.18-2.26,1.22-.65,2.45-1.28,3.66-1.94.71-.38,1.38-.64,1.99.15.03.03.08.05.11.07,2.44,1.65,4.88,3.3,7.32,4.94.56.38,1.08.82,1.72,1.05.33.12.51-.02.53-.37.02-.55-.08-1.09-.17-1.63-.26-1.5-.47-3.01-.74-4.5-.39-2.2-.8-4.4-1.22-6.6-.02-.09-.05-.12.04-.2Zm-14.19-6.07c.31-.02.54,0,.47.28-.05.19-.02.51-.34.52-.36.01-.39-.35-.44-.56-.05-.24.22-.23.31-.24Zm-.61-.84c-.04.13-.05.31-.23.35-.22-.08-.3-.24-.31-.44,0-.2.14-.25.31-.25.23,0,.28.17.23.34Zm.8,11.98c-.04.16-.06.44-.27.44-.16,0-.29-.22-.32-.4-.03-.21.16-.2.32-.24.13,0,.3.05.27.19Zm.47-1.64c-.03.25-.1.63-.37.62-.25,0-.47-.33-.51-.62-.04-.3.26-.28.42-.35.28,0,.48.08.45.35Zm-.12-10c-.12-.02-.23-.13-.24-.29,0-.15.1-.12.18-.13.13-.01.2.03.18.18.02.12-.04.26-.13.24Zm1.11,11.22c-.09.14.02.5-.29.5-.31,0-.39-.33-.42-.59-.04-.3.25-.27.41-.29.18-.02.35.07.3.38Zm10.88-8.04c-.06.21-.03.57-.38.56-.31,0-.36-.34-.41-.55-.07-.33.28-.21.45-.3.14.06.4.06.33.3Zm.32-.89c-.25-.03-.37-.26-.38-.48,0-.23.22-.21.39-.24.21-.02.36.1.3.27-.06.16,0,.49-.31.45Zm1.15.63c-.11.17-.05.56-.41.54-.33-.02-.45-.39-.46-.62-.02-.32.32-.26.55-.27.22-.01.35.06.33.35Z"/>
        <path class="cls-2" d="m76.08,65.93c-1.84-.45-3.73-.68-5.57-1.17-.28-.07-.43-.22-.44-.44-.04-.58-.18-1.14-.3-1.71-.14-.68-.17-1.4-.53-2.03-.21-.36-.45-.4-.75-.12-.1.09-.18.2-.26.31-.68.89-1.25,1.87-1.87,2.8-.09.14-.15.32-.39.27-.62-.12-1.25-.22-1.88-.32-.95-.14-1.91-.27-2.9-.41-.19.08-.44.02-.59.32-.17.33-.02.57.16.76,1.03,1.06,1.91,2.26,2.98,3.27.67.64.66.65.14,1.41-.85,1.22-1.69,2.44-2.43,3.73-.12.21-.34.47-.15.69.15.16.44.08.68.03,1.47-.33,2.9-.81,4.33-1.27.53-.17.88-.28,1.33.26.83,1,1.82,1.85,2.71,2.8.63.67,1.29,1.31,1.94,1.97.14.14.34.25.52.17.16-.08.16-.29.16-.48-.01-.63,0-1.26-.08-1.89-.1-.74-.08-1.49-.2-2.22-.17-1.02-.17-2.06-.44-3.06-.06-.21.12-.24.24-.31,1.32-.77,2.67-1.49,3.85-2.48.18-.15.32-.26.27-.49-.06-.25-.28-.33-.5-.39Zm-12.83-.72c-.25,0-.31-.21-.35-.34-.06-.2.21-.19.32-.3.22.01.23.2.24.32,0,.11.04.31-.2.31Zm.63-.53c-.01-.17.08-.19.22-.2.21-.01.28.07.22.28-.02.09.08.27-.11.27-.19,0-.32-.13-.34-.34Zm.38,1.29c-.13-.03-.3-.08-.29-.28,0-.14.09-.21.23-.21.24,0,.04.24.19.29-.08.07.01.24-.13.2Zm5.33-.18c-.02.16-.13.3-.34.33-.13-.07-.19-.19-.19-.34,0-.17.12-.22.27-.22.15,0,.28.06.26.22Zm0-.74c0,.11-.04.23-.15.2-.1-.03-.2-.12-.21-.26-.01-.17.11-.14.21-.14.17-.01.15.1.15.21Zm.47,6.42c-.16-.04-.28-.17-.28-.34,0-.16.19-.21.32-.2.17.02.2.18.2.33,0,.14-.09.21-.25.21Zm-.2-6.72h0c.23.12.48.22.72.3-.25-.08-.49-.18-.72-.3Z"/>
        <path class="cls-2" d="m34.13,89.97c-.05.91.7,1.8,1.44,1.81.78,0,1.63-.98,1.63-1.9,0-.73-.58-1.32-1.34-1.27-1.07.07-1.68.37-1.74,1.36Zm1.44-.44c.26-.06.8.29.81.48.02.27-.35.6-.67.6-.27,0-.6-.35-.6-.66,0-.28.25-.37.45-.41Z"/>
      </g>
    </g>
  </g>
</svg>