<?xml version="1.0" encoding="UTF-8"?>
<svg id="Layer_2" data-name="Layer 2" xmlns="http://www.w3.org/2000/svg" viewBox="0 0 512 512">
  <defs>
    <style>
      .cls-1 {
        fill: #fff;
      }

      .cls-2 {
        fill: #e8c274;
      }

      .cls-3 {
        fill: #09231b;
      }
    </style>
  </defs>
  <g id="Layer_1-2" data-name="Layer 1">
    <g>
      <rect class="cls-3" width="512" height="512" rx="171.82" ry="171.82"/>
      <g>
        <path class="cls-1" d="m229.55,233.79c6.92,0,19.27-2.17,27.96-6.38l5.43-11.94c7.74-17.1,4.61-27.82-2.85-37.87l2.85-5.29-19.54-13.03h-2.71l-6.92,24.3c14.93,7.46,26.06,14.93,30.13,23.34-7.74.54-23.21,1.22-29.86,1.22-16.42,0-15.34-4.07-17.37-11.27h-2.71c-.54,7.19-1.09,16.15-1.09,19.68,0,11.94,5.97,17.24,16.69,17.24Z"/>
        <path class="cls-1" d="m288.86,235.96l7.19-22.26c1.63-5.16,2.44-10.45,2.44-15.88v-34.47l4.75-5.56-7.33-27.15h-2.71l-11.67,14.39,4.61,90.94h2.71Z"/>
        <path class="cls-1" d="m339.08,148.01c.14-.14.14-2.17,0-2.31l-13.17-13.17-13.3,13.3v2.04l13.3,13.3,13.17-13.17Z"/>
        <path class="cls-1" d="m327.27,171.9h-2.71l-9.23,21.99c6.92,6.92,16.02,15.2,21.72,24.43-4.34,14.93-24.29,24.7-49.4,29.18v2.71l29.18,14.79c13.44-15.61,23.07-36.1,23.07-56.19,0-2.17-.14-4.48-.54-6.79l4.34-9.91-16.42-20.22Z"/>
        <path class="cls-1" d="m229.03,260.65c.14-.14.14-1.9,0-2.04l-11.13-11.13-11.4,11.27v1.63l11.4,11.4,11.13-11.13Z"/>
        <path class="cls-1" d="m218.18,284.13l10.18,10.18,11.4-11.4c.14-.14.14-1.9,0-2.04l-11.4-11.4-10.18,10.18-10.18-10.18-11.54,11.54v1.76l11.54,11.54,10.18-10.18Z"/>
        <path class="cls-1" d="m351.46,247.49l-11.4,14.39,3.94,62.43c-1.9.27-5.97.68-8.69.68h-24.43c9.5-6.11,13.71-13.71,13.71-21.72,0-15.34-13.03-20.22-26.6-20.22-8.01,0-16.15,1.76-22.26,4.07l-8.28,18.19v2.04c3.8,6.38,7.6,12.22,11.67,17.37-3.53.27-7.74.27-13.71.27-9.5,0-18.46-.81-18.87-10.86l-.54-11.54h-3.53l-5.16,21.31-17.78-3.66,2.58-11.81-3.94-.81-4.75,16.83c-4.07.54-8.41.54-12.22.54-.05,0-.09,0-.13,0h0c-11.81,0-14.66-2.18-12.62-8.69l3.26-10.45-2.85-4.34-46.15,7.87-5.29,16.97c8.82,3.8,16.83,7.6,24.29,13.03-6.38,11.4-23.07,20.36-46.28,24.7v2.71l29.05,14.79c11.94-14.52,19.41-27.42,19.41-39.22,0-4.61-1.09-9.09-3.53-13.71l22.94-5.7c-.54,2.99-.95,6.11-.95,9.5,0,11.13,4.21,18.19,12.08,18.19.05,0,.09,0,.13,0h0c5.84,0,8.82-.67,12.62-3.39l1.9-4.75,24.43,5.56,3.94-16.15c.81,14.79,10.86,18.73,21.44,18.73h0c6.51,0,12.21-1.49,18.46-3.8l12.62-10.32c10.32,8.96,22.53,14.12,38.82,14.12h0c.21,0,.4,0,.6-.01.01,0,.02,0,.03,0,.2,0,.39-.02.57-.03.01,0,.02,0,.03,0,.08,0,.16-.01.24-.02,6-.54,11.73-4.15,13.86-5.9,4.07-11.27,12.62-39.09,12.62-53.48v-10.99l4.75-5.56-7.33-27.15h-2.71Zm-69.76,64.47l-3.66-5.56c6.38-.54,14.25-1.09,21.44-1.09,10.72,0,21.04,1.36,21.04,5.84,0,4.07-19.27,10.32-27.42,11.94-4.34-1.76-7.46-5.02-11.4-11.13Z"/>
        <path class="cls-1" d="m389.46,247.49h-2.71l-11.67,14.39,4.61,90.94h2.71l7.19-22.26c1.63-5.16,2.44-10.45,2.44-15.88v-34.47l4.75-5.56-7.33-27.15Z"/>
      </g>
      <g>
        <path class="cls-2" d="m200.6,189.59c-.47.04-1.07-.22-.99.7.07.86.41,1.77,1.18,1.76.68,0,1.14-.98,1.12-1.76-.02-.8-.73-.71-1.3-.71Z"/>
        <path class="cls-2" d="m134.82,166.89c.18-2.08-1.75-3.03-3.74-3.16-1.81-.12-3.38,1.43-3.3,3.2.11,2.31,1.19,3.9,3.25,3.98,1.62.06,3.84-1.47,3.78-4.02Zm-3.2,1.65c-1.04-.02-1.3-.89-1.63-1.61-.16-.35,1.21-1.11,1.98-1.11.77,0,1.44.22,1.58,1.07.1.6-1.19,1.67-1.93,1.65Z"/>
        <path class="cls-2" d="m184.01,235.9c-.54.13-1.68-.24-1.58,1.08.08,1.06.92,2.67,1.55,2.7.47.02,1.6-1.64,1.61-2.37.02-.9-.65-1.63-1.58-1.4Z"/>
        <path class="cls-2" d="m181.15,241.12c-.71,0-1.3.12-1.36.96-.06.84.74,2.16,1.29,2.19.55.03,1.37-1.16,1.38-2.02,0-.87-.49-1.15-1.31-1.14Z"/>
        <path class="cls-2" d="m186.66,241.85c-.46.03-1.12-.09-1.03.6.07.6.18,1.48.97,1.51.45.02.94-.53.95-1.37.07-.47-.19-.79-.88-.75Z"/>
        <path class="cls-2" d="m69.34,260.01c-1.24,0-1.34.07-1.34.97,0,.97.97,2.7,1.5,2.65.44-.04,1.71-1.91,1.63-2.58-.12-1.06-.98-1.04-1.78-1.04Z"/>
        <path class="cls-2" d="m140.96,265.1c-.8-.04-1.6-.15-1.59,1.03,0,1.05.88,2.61,1.49,2.59.68-.02,1.88-1.69,1.75-2.66-.12-.9-.88-1.05-1.65-.96Z"/>
        <path class="cls-2" d="m145.43,270.65c-.56-.02-1.07-.04-.98.78.08.73.23,1.58,1.06,1.59.8.02.95-.86,1.11-1.31.09-1.18-.6-1.04-1.19-1.06Z"/>
        <path class="cls-2" d="m122.88,204.5c.16-.27.29-.56.46-.83.39-.65.79-1.49.44-2.07-.36-.6-1.13-1.14-1.94-.87-1.8,0-2.22.31-2.03,1.62.11.76.35,1.54.72,2.2.68,1.23,1.63,1.18,2.35-.05Z"/>
        <path class="cls-2" d="m115.67,204.91c.06-1.01-.46-1.35-1.39-1.28-1.07-.01-1.73.35-1.75.95-.03.74,1.14,2.63,1.64,2.67.43.03,1.46-1.6,1.5-2.34Z"/>
        <path class="cls-2" d="m166.97,238.7c1.81-1.48,3.42-3.17,5.09-4.79,4.85-4.67,9.55-9.49,14.32-14.25.35-.35.55-.75.7-1.24-.19-.81-.77-1.26-1.53-1.47-1.55-.45-3.16-.62-4.77-.74-2.14-.16-4.29-.32-6.43-.53-3.44-.34-6.9-.55-10.33-.96-1.87-.22-3.76,0-5.61-.41-.45-.1-.72-.21-.88-.62-1.27-3.41-3.13-6.56-4.55-9.9-2.15-5.1-4.76-10.01-6.37-15.33-.21-.7-.5-1.51-1.4-1.48-.79.02-1.39.49-1.74,1.26-1.03,2.25-2.12,4.47-3.11,6.73-1.58,3.61-3.1,7.25-4.63,10.89-1.09,2.58-2.52,5.04-2.99,7.86-.06.36-.14.75-.84.87-2.86.48-5.7,1.14-8.54,1.77-4.03.89-8.04,1.85-12.11,2.54-1.97.34-3.94.73-5.87,1.22-1.17.29-1.61,1.96-.78,2.82,1.61,1.67,3.22,3.37,5.05,4.8,2.56,2.01,5.03,4.11,7.46,6.26,1.67,1.47,3.38,2.89,5.06,4.35.75.65,1.73,1.24,2.09,2.07.23.54-.51,1.48-.79,2.25-.13.36-.21.75-.32,1.12-1.63,5.43-2.78,10.98-4.04,16.51-.49,2.17-1.01,4.34-1.53,6.51-.22.91-.34,1.88.48,2.47.82.58,1.68-.04,2.42-.43,3.73-1.99,7.42-4.04,11.14-6.04,3.24-1.74,6.52-3.41,9.76-5.16,1.89-1.02,3.69-1.72,5.32.39.07.09.21.12.3.19,6.5,4.39,13,8.79,19.51,13.18,1.49,1,2.87,2.18,4.58,2.8.88.32,1.37-.06,1.41-.99.06-1.48-.21-2.91-.46-4.36-.69-4-1.26-8.01-1.97-12.01-1.03-5.88-2.14-11.74-3.24-17.61-.05-.25-.15-.32.12-.53Zm-37.85-16.18c.83-.05,1.44,0,1.26.74-.13.52-.06,1.37-.91,1.4-.97.03-1.04-.92-1.17-1.49-.15-.65.6-.62.82-.65Zm-1.63-2.25c-.1.35-.14.84-.62.93-.59-.21-.8-.65-.81-1.18,0-.52.38-.66.82-.66.62,0,.75.45.62.91Zm2.13,31.96c-.1.44-.15,1.18-.73,1.18-.42,0-.77-.58-.85-1.06-.09-.55.44-.55.86-.64.34,0,.81.12.72.51Zm1.25-4.37c-.08.67-.26,1.67-.97,1.65-.67-.03-1.26-.89-1.37-1.64-.11-.8.71-.76,1.13-.92.74-.01,1.29.22,1.21.92Zm-.31-26.66c-.31-.06-.62-.34-.63-.78,0-.39.26-.32.49-.34.35-.03.54.09.47.47.05.31-.11.69-.33.64Zm2.97,29.93c-.23.36.06,1.34-.78,1.33-.82,0-1.03-.87-1.11-1.56-.1-.79.66-.72,1.08-.77.47-.06.94.19.81,1Zm29.02-21.44c-.16.56-.09,1.51-1,1.49-.83-.01-.96-.91-1.09-1.47-.19-.87.74-.55,1.21-.81.37.17,1.06.15.88.79Zm.84-2.37c-.66-.08-.98-.71-1.01-1.28-.03-.62.6-.57,1.04-.63.56-.06.96.26.79.72-.15.43.02,1.3-.83,1.19Zm3.06,1.68c-.29.46-.13,1.5-1.1,1.45-.88-.05-1.19-1.04-1.23-1.66-.06-.86.85-.68,1.46-.72.58-.03.94.16.87.93Z"/>
        <path class="cls-2" d="m202.89,175.81c-4.91-1.2-9.95-1.81-14.85-3.11-.75-.2-1.14-.58-1.18-1.18-.11-1.55-.49-3.04-.8-4.55-.38-1.82-.45-3.74-1.43-5.4-.57-.96-1.19-1.08-2.01-.32-.26.24-.47.53-.69.82-1.83,2.38-3.33,4.98-4.99,7.47-.25.37-.39.84-1.05.72-1.66-.32-3.33-.6-5.01-.85-2.54-.38-5.09-.73-7.72-1.11-.5.2-1.18.06-1.58.86-.45.89-.07,1.53.43,2.04,2.75,2.82,5.08,6.02,7.96,8.73,1.8,1.7,1.77,1.74.36,3.77-2.26,3.25-4.51,6.51-6.48,9.95-.31.55-.91,1.26-.39,1.83.39.43,1.18.21,1.81.07,3.92-.88,7.73-2.17,11.55-3.39,1.42-.46,2.34-.75,3.54.7,2.2,2.66,4.86,4.93,7.22,7.47,1.67,1.8,3.45,3.5,5.16,5.26.37.38.91.67,1.38.44.42-.21.44-.78.43-1.27-.03-1.68,0-3.36-.23-5.03-.26-1.97-.22-3.97-.54-5.92-.44-2.72-.44-5.5-1.17-8.17-.15-.56.33-.64.64-.82,3.51-2.06,7.12-3.96,10.25-6.62.48-.4.86-.7.71-1.32-.16-.66-.74-.88-1.32-1.03Zm-34.21-1.93c-.67.02-.83-.57-.93-.91-.16-.54.57-.5.84-.79.57.03.62.53.63.87.01.3.12.82-.54.84Zm1.67-1.42c-.03-.44.22-.51.59-.54.55-.04.75.18.6.74-.05.24.21.72-.29.72-.52,0-.86-.36-.9-.92Zm1.01,3.45c-.35-.08-.8-.2-.76-.74.02-.37.24-.57.61-.57.64,0,.11.64.5.76-.22.19.03.63-.35.54Zm14.21-.47c-.06.44-.34.79-.9.88-.34-.18-.51-.52-.51-.9,0-.44.31-.59.72-.58.41,0,.75.16.69.6Zm.02-1.98c.01.29-.1.62-.4.54-.27-.07-.54-.33-.56-.7-.03-.46.3-.36.56-.38.44-.04.41.26.4.55Zm1.26,17.12c-.44-.11-.75-.46-.74-.9.01-.43.5-.57.85-.53.46.04.54.49.55.87,0,.36-.25.55-.66.56Zm-.53-17.91h0c.63.32,1.27.58,1.92.8-.65-.22-1.3-.48-1.92-.8Z"/>
        <path class="cls-2" d="m91.01,239.93c-.14,2.43,1.86,4.81,3.84,4.83,2.09.02,4.36-2.61,4.36-5.06,0-1.94-1.55-3.52-3.57-3.38-2.85.19-4.49,1-4.63,3.61Zm3.85-1.18c.7-.16,2.14.78,2.17,1.27.04.71-.94,1.59-1.77,1.59-.72,0-1.61-.93-1.6-1.76.01-.74.67-.99,1.2-1.11Z"/>
      </g>
    </g>
  </g>
</svg>