<?xml version="1.0" encoding="UTF-8"?>
<svg id="Layer_2" data-name="Layer 2" xmlns="http://www.w3.org/2000/svg" viewBox="0 0 512 512">
  <defs>
    <style>
      .cls-1 {
        fill: #fff;
      }

      .cls-2 {
        fill: #e8c274;
      }

      .cls-3 {
        fill: #09231b;
      }
    </style>
  </defs>
  <g id="Layer_1-2" data-name="Layer 1">
    <g>
      <rect class="cls-3" x="0" width="512" height="512" rx="171.82" ry="171.82"/>
      <g>
        <path class="cls-1" d="m153.92,331.54c14.52,0,40.42-4.55,58.64-13.38l11.39-25.05c16.22-35.86,9.68-58.35-5.98-79.41l5.98-11.1-40.99-27.33h-5.69l-14.52,50.95c31.31,15.66,54.65,31.31,63.19,48.96-16.22,1.14-48.67,2.56-62.62,2.56-34.44,0-32.16-8.54-36.43-23.63h-5.69c-1.14,15.09-2.28,33.87-2.28,41.27,0,25.05,12.52,36.15,35.01,36.15Z"/>
        <path class="cls-1" d="m278.31,336.09l15.09-46.68c3.42-10.82,5.12-21.92,5.12-33.3v-72.3l9.96-11.67-15.37-56.93h-5.69l-24.48,30.17,9.68,190.71h5.69Z"/>
        <path class="cls-2" d="m383.63,151.65c.28-.28.28-4.55,0-4.84l-27.61-27.61-27.89,27.89v4.27l27.89,27.89,27.61-27.61Z"/>
        <path class="cls-1" d="m358.86,201.74h-5.69l-19.36,46.11c14.52,14.52,33.59,31.88,45.54,51.24-9.11,31.31-50.95,51.81-103.61,61.2v5.69l61.2,31.03c28.18-32.73,48.39-75.71,48.39-117.84,0-4.55-.28-9.39-1.14-14.23l9.11-20.78-34.44-42.41Z"/>
      </g>
    </g>
  </g>
</svg>